<svg width="68" height="68" viewBox="0 0 68 68" fill="none" xmlns="http://www.w3.org/2000/svg">
<g clip-path="url(#clip0_294_5307)">
<path fill-rule="evenodd" clip-rule="evenodd" d="M18.2526 29.5425C18.6023 29.2813 18.9023 29.0545 19.0602 28.9338C20.0192 28.1971 22.6234 26.6564 24.0674 24.9704C25.1696 23.6845 25.6017 22.3104 24.5662 21.0879C23.6249 19.9768 21.9642 19.8359 20.031 20.349C15.8703 21.4534 10.3923 25.499 9.05301 27.1486C8.90689 27.3287 8.93396 27.5925 9.11412 27.7386C9.29343 27.8841 9.55719 27.857 9.70331 27.6769C10.989 26.0942 16.252 22.2194 20.2462 21.159C21.8075 20.7448 23.1665 20.7325 23.9266 21.6303C24.6773 22.5159 24.23 23.4925 23.431 24.4247C22.026 26.0659 19.4836 27.552 18.5493 28.2688C17.9639 28.7185 15.6828 30.3703 15.5214 30.559C15.3191 30.7951 15.4374 31.0087 15.4814 31.0758C15.5155 31.1279 15.7023 31.3767 16.0476 31.2155C20.9724 28.9186 30.1194 28.8027 37.7292 31.6268C45.2721 34.426 51.3155 40.1401 50.0978 49.5907C50.0687 49.8203 50.2311 50.0306 50.4601 50.0606C50.6897 50.0897 50.9 49.9273 50.9291 49.6977C52.2048 39.7956 45.9235 33.7734 38.0214 30.8408C31.3617 28.3691 23.5583 28.1116 18.2526 29.5425Z" fill="#00A6C0"/>
<path fill-rule="evenodd" clip-rule="evenodd" d="M50.5107 49.1448C49.9893 48.305 49.4968 47.4523 48.9099 46.6525C47.3464 44.5216 45.2706 42.6386 42.8827 41.4841C42.6734 41.3835 42.4231 41.4713 42.3223 41.6791C42.2218 41.8883 42.3096 42.1385 42.5173 42.2394C44.7843 43.3337 46.7503 45.1267 48.2334 47.1485C48.9048 48.0643 49.4514 49.0515 50.0617 50.0066C50.0927 50.0538 50.3452 50.477 50.4231 50.5516C50.6033 50.7265 50.7896 50.6838 50.8733 50.653C50.9435 50.6281 51.0216 50.5815 51.09 50.4926C51.1456 50.4193 51.2186 50.2554 51.2696 50.0155C51.4352 49.2475 51.5645 47.4008 51.6179 47.0999C52.2284 43.6509 53.3754 40.5447 54.5013 37.2442C54.5752 37.0248 54.4582 36.786 54.2395 36.7112C54.0208 36.6364 53.7828 36.754 53.708 36.9727C52.5677 40.315 51.4105 43.4622 50.7931 46.9532C50.7557 47.1599 50.6121 48.3159 50.5107 49.1448Z" fill="#00A6C0"/>
</g>
<defs>
<clipPath id="clip0_294_5307">
<rect width="47.7813" height="47.7813" fill="white" transform="translate(28.4209 0.398438) rotate(35.9069)"/>
</clipPath>
</defs>
</svg>
