<svg width="166" height="166" viewBox="0 0 166 166" fill="none" xmlns="http://www.w3.org/2000/svg">
<g clip-path="url(#clip0_292_446)">
<path fill-rule="evenodd" clip-rule="evenodd" d="M66.3136 118.524C65.8389 117.572 65.4252 116.754 65.2043 116.323C63.8537 113.703 61.2889 106.789 57.8719 102.593C55.2661 99.3917 52.1581 97.7588 48.7765 99.7119C45.7031 101.487 44.6443 105.409 45.0359 110.268C45.8788 120.727 53.2039 135.621 56.5788 139.549C56.9475 139.978 57.5919 140.028 58.0205 139.659C58.4473 139.292 58.4969 138.648 58.1282 138.219C54.8904 134.449 47.8815 120.144 47.0721 110.104C46.7562 106.179 47.3167 102.915 49.7998 101.481C52.2497 100.065 54.3979 101.562 56.2869 103.883C59.6132 107.965 62.074 114.708 63.3876 117.26C64.212 118.859 67.1837 125.047 67.5661 125.516C68.0446 126.104 68.6081 125.913 68.7884 125.836C68.9281 125.777 69.6059 125.437 69.369 124.539C65.9978 111.73 69.6902 89.7417 79.7666 72.7161C89.7542 55.84 106.082 43.8258 128.22 50.8485C128.758 51.018 129.333 50.7198 129.504 50.1836C129.674 49.6456 129.376 49.0707 128.838 48.9012C105.642 41.5434 88.4718 53.9945 78.0083 71.674C69.1894 86.5738 65.1849 105.178 66.3136 118.524Z" fill="#00A6C0"/>
<path fill-rule="evenodd" clip-rule="evenodd" d="M127.331 49.6652C125.091 50.5513 122.832 51.3622 120.659 52.4228C114.869 55.2476 109.452 59.409 105.646 64.6351C105.314 65.0933 105.416 65.7317 105.871 66.0636C106.329 66.3957 106.967 66.2938 107.299 65.8392C110.908 60.8771 116.062 56.9401 121.555 54.2606C124.042 53.0477 126.647 52.1654 129.203 51.1162C129.33 51.0623 130.454 50.6403 130.667 50.486C131.165 50.1297 131.143 49.6643 131.106 49.4503C131.076 49.271 130.999 49.0634 130.815 48.8609C130.663 48.6956 130.302 48.4494 129.749 48.223C127.979 47.4924 123.606 46.3807 122.907 46.1222C114.9 43.1608 107.948 39.0614 100.521 34.9286C100.027 34.656 99.403 34.8329 99.1287 35.3251C98.8543 35.8172 99.0331 36.4389 99.5252 36.7133C107.046 40.8991 114.092 45.0405 122.197 48.0367C122.677 48.216 125.387 49.0623 127.331 49.6652Z" fill="#00A6C0"/>
</g>
<defs>
<clipPath id="clip0_292_446">
<rect width="116.461" height="116.461" fill="white" transform="translate(0.828125 81.4863) rotate(-43.8349)"/>
</clipPath>
</defs>
</svg>
