<svg width="166" height="166" viewBox="0 0 166 166" fill="none" xmlns="http://www.w3.org/2000/svg">
<g clip-path="url(#clip0_292_1326)">
<path fill-rule="evenodd" clip-rule="evenodd" d="M66.3136 47.798C65.8389 48.7503 65.4252 49.5681 65.2043 49.9993C63.8537 52.6192 61.2889 59.5337 57.8719 63.729C55.2661 66.9305 52.1581 68.5635 48.7765 66.6104C45.7031 64.8352 44.6443 60.9132 45.0359 56.0539C45.8788 45.5956 53.2039 30.7011 56.5788 26.7729C56.9475 26.3442 57.5919 26.2947 58.0205 26.6633C58.4473 27.0302 58.4969 27.6746 58.1282 28.1032C54.8904 31.8737 47.8815 46.1784 47.0721 56.2185C46.7562 60.1429 47.3167 63.4076 49.7998 64.8412C52.2497 66.2571 54.3979 64.7605 56.2869 62.4395C59.6132 58.3573 62.074 51.6144 63.3876 49.0627C64.212 47.4634 67.1837 41.2754 67.5661 40.8064C68.0446 40.2187 68.6081 40.4096 68.7884 40.4862C68.9281 40.5453 69.6059 40.8852 69.369 41.7834C65.9978 54.592 69.6902 76.5806 79.7666 93.6062C89.7542 110.482 106.082 122.496 128.22 115.474C128.758 115.304 129.333 115.602 129.504 116.139C129.674 116.677 129.376 117.252 128.838 117.421C105.642 124.779 88.4718 112.328 78.0083 94.6483C69.1894 79.7485 65.1849 61.1445 66.3136 47.798Z" fill="#00A6C0"/>
<path fill-rule="evenodd" clip-rule="evenodd" d="M127.331 116.657C125.091 115.771 122.832 114.96 120.659 113.899C114.869 111.075 109.452 106.913 105.646 101.687C105.314 101.229 105.416 100.591 105.871 100.259C106.329 99.9266 106.967 100.029 107.299 100.483C110.908 105.445 116.062 109.382 121.555 112.062C124.042 113.275 126.647 114.157 129.203 115.206C129.33 115.26 130.454 115.682 130.667 115.836C131.165 116.193 131.143 116.658 131.106 116.872C131.076 117.051 130.999 117.259 130.815 117.461C130.663 117.627 130.302 117.873 129.749 118.099C127.979 118.83 123.606 119.942 122.907 120.2C114.9 123.161 107.948 127.261 100.521 131.394C100.027 131.666 99.403 131.489 99.1287 130.997C98.8543 130.505 99.0331 129.883 99.5252 129.609C107.046 125.423 114.092 121.282 122.197 118.286C122.677 118.106 125.387 117.26 127.331 116.657Z" fill="#00A6C0"/>
</g>
<defs>
<clipPath id="clip0_292_1326">
<rect width="116.461" height="116.461" fill="white" transform="matrix(0.721339 0.692582 0.692582 -0.721339 0.828125 84.8357)"/>
</clipPath>
</defs>
</svg>
