<svg width="40" height="28" viewBox="0 0 40 28" fill="none"
    xmlns="http://www.w3.org/2000/svg">
    <path d="M30.7428 7.51367L32.1109 8.98828L33.9361 8.14289L32.9564 9.89969L34.3246 11.3744L32.3509 10.9855L31.3713 12.7423L31.1312 10.7452L29.1575 10.3562L30.9828 9.51094L30.7428 7.51367Z" fill="#F0F0F0"/>
    <path d="M-3.05176e-05 0.859375H40V27.5255H-3.05176e-05V0.859375Z" fill="#F0F0F0"/>
    <path d="M9.99997 0.858398H40V27.5254H9.99997V0.858398Z" fill="#496E2D"/>
    <path d="M28.2741 17.5351C25.8493 19.2871 22.4633 18.7418 20.7113 16.3169C18.9592 13.8921 19.5046 10.5061 21.9295 8.75411C22.6855 8.20786 23.535 7.88497 24.3993 7.77263C22.7365 7.52396 20.9792 7.89864 19.5088 8.96099C16.5244 11.1174 15.8532 15.2847 18.0095 18.2692C20.1658 21.2535 24.3333 21.9248 27.3177 19.7683C28.788 18.706 29.6955 17.1552 29.9815 15.4984C29.6034 16.2836 29.0302 16.9887 28.2741 17.5351ZM28.1703 7.6988L29.5362 9.17083L31.3583 8.32693L30.3802 10.0806L31.7461 11.5528L29.7758 11.1647L28.7978 12.9186L28.5582 10.9247L26.5879 10.5365L28.41 9.69263L28.1703 7.6988Z" fill="#F0F0F0"/>
</svg>
