<svg width="34" height="26" viewBox="0 0 34 26" fill="none"
    xmlns="http://www.w3.org/2000/svg">
    <path d="M-3.05176e-05 0.51709V8.96709L16.842 10.1671L33.684 8.96709V0.51709H-3.05176e-05Z" fill="#0099B5"/>
    <path d="M-3.05176e-05 17.4168V25.8668H33.684V17.4168L16.842 16.2168L-3.05176e-05 17.4168Z" fill="#1EB53A"/>
    <path d="M-3.05176e-05 8.96729H33.6836V17.4169H-3.05176e-05V8.96729Z" fill="#F1F1F1"/>
    <path d="M2.92557 4.49369C2.92565 3.97933 3.10788 3.48162 3.43993 3.08879C3.77198 2.69597 4.2324 2.43342 4.73957 2.34769C4.42737 2.2946 4.10734 2.31029 3.80182 2.39365C3.4963 2.47701 3.21265 2.62605 2.97068 2.83035C2.7287 3.03465 2.53423 3.2893 2.40083 3.57652C2.26743 3.86374 2.19832 4.17661 2.19832 4.49329C2.19832 4.80998 2.26743 5.12285 2.40083 5.41007C2.53423 5.69729 2.7287 5.95194 2.97068 6.15624C3.21265 6.36054 3.4963 6.50957 3.80182 6.59294C4.10734 6.6763 4.42737 6.69198 4.73957 6.63889C4.2324 6.55349 3.7719 6.29114 3.43981 5.89842C3.10772 5.5057 2.92552 5.008 2.92557 4.49369ZM9.26277 6.10049L9.16517 5.79969L9.06757 6.10049H8.75117L9.00677 6.28609L8.90917 6.58689L9.16517 6.40129L9.42117 6.58689L9.32317 6.28609L9.57917 6.10049H9.26277ZM9.16517 4.05809L9.06757 4.35889H8.75117L9.00677 4.54489L8.90917 4.84569L9.16517 4.65969L9.42117 4.84569L9.32317 4.54489L9.57917 4.35889H9.26277L9.16517 4.05809ZM9.16517 2.31689L9.06757 2.61769H8.75117L9.00677 2.80369L8.90917 3.10449L9.16517 2.91849L9.42117 3.10449L9.32317 2.80369L9.57917 2.61769H9.26277L9.16517 2.31689ZM11.004 6.10049L10.9064 5.79969L10.8088 6.10049H10.4924L10.7484 6.28609L10.6504 6.58689L10.9064 6.40129L11.1624 6.58689L11.0644 6.28609L11.3204 6.10049H11.004ZM10.9064 4.05809L10.8088 4.35889H10.4924L10.7484 4.54489L10.6504 4.84569L10.9064 4.65969L11.1624 4.84569L11.0644 4.54489L11.3204 4.35889H11.004L10.9064 4.05809ZM10.9064 2.31689L10.8088 2.61769H10.4924L10.7484 2.80369L10.6504 3.10449L10.9064 2.91849L11.1624 3.10449L11.0644 2.80369L11.3204 2.61769H11.004L10.9064 2.31689ZM12.7452 6.10049L12.6476 5.79969L12.55 6.10049H12.2336L12.4896 6.28609L12.3916 6.58689L12.6476 6.40129L12.9036 6.58689L12.8056 6.28609L13.0616 6.10049H12.7452ZM12.6476 4.05809L12.55 4.35889H12.2336L12.4896 4.54489L12.3916 4.84569L12.6476 4.65969L12.9036 4.84569L12.8056 4.54489L13.0616 4.35889H12.7452L12.6476 4.05809ZM12.4896 2.80369L12.3916 3.10449L12.6476 2.91849L12.9036 3.10449L12.8056 2.80369L13.0616 2.61769H12.7452L12.6476 2.31689L12.55 2.61769H12.2336L12.4896 2.80369ZM5.78037 6.10049L5.68277 5.79969L5.58477 6.10049H5.26877L5.52437 6.28609L5.42677 6.58689L5.68277 6.40129L5.93837 6.58689L5.84077 6.28609L6.09677 6.10049H5.78037ZM7.52157 6.10049L7.42397 5.79969L7.32597 6.10049H7.00997L7.26557 6.28609L7.16797 6.58689L7.42397 6.40129L7.67957 6.58689L7.58197 6.28609L7.83797 6.10049H7.52157ZM7.42397 4.05809L7.32597 4.35889H7.00997L7.26557 4.54489L7.16797 4.84569L7.42397 4.65969L7.67957 4.84569L7.58197 4.54489L7.83797 4.35889H7.52157L7.42397 4.05809Z" fill="white"/>
    <path d="M-3.05176e-05 8.96729H33.6836V10.1673H-3.05176e-05V8.96729ZM-3.05176e-05 16.2169H33.6836V17.4169H-3.05176e-05V16.2169Z" fill="#EF3340"/>
</svg>
