<svg width="115" height="115" viewBox="0 0 115 115" fill="none" xmlns="http://www.w3.org/2000/svg">
<circle cx="1.85484" cy="1.85484" r="1.85484" fill="#00A6C0"/>
<circle cx="1.85484" cy="24.1127" r="1.85484" fill="#00A6C0"/>
<circle cx="1.85484" cy="46.371" r="1.85484" fill="#00A6C0"/>
<circle cx="1.85484" cy="68.6292" r="1.85484" fill="#00A6C0"/>
<circle cx="1.85484" cy="90.8871" r="1.85484" fill="#00A6C0"/>
<circle cx="1.85484" cy="113.145" r="1.85484" fill="#00A6C0"/>
<circle cx="24.1127" cy="1.85484" r="1.85484" fill="#00A6C0"/>
<circle cx="24.1127" cy="24.1127" r="1.85484" fill="#00A6C0"/>
<circle cx="24.1127" cy="46.371" r="1.85484" fill="#00A6C0"/>
<circle cx="24.1127" cy="68.6292" r="1.85484" fill="#00A6C0"/>
<circle cx="24.1127" cy="90.8871" r="1.85484" fill="#00A6C0"/>
<circle cx="24.1127" cy="113.145" r="1.85484" fill="#00A6C0"/>
<circle cx="46.371" cy="1.85484" r="1.85484" fill="#00A6C0"/>
<circle cx="46.371" cy="24.1127" r="1.85484" fill="#00A6C0"/>
<circle cx="46.371" cy="46.371" r="1.85484" fill="#00A6C0"/>
<circle cx="46.371" cy="68.6292" r="1.85484" fill="#00A6C0"/>
<circle cx="46.371" cy="90.8871" r="1.85484" fill="#00A6C0"/>
<circle cx="46.371" cy="113.145" r="1.85484" fill="#00A6C0"/>
<circle cx="68.6288" cy="1.85484" r="1.85484" fill="#00A6C0"/>
<circle cx="68.6288" cy="24.1127" r="1.85484" fill="#00A6C0"/>
<circle cx="68.6288" cy="46.371" r="1.85484" fill="#00A6C0"/>
<circle cx="68.6288" cy="68.6292" r="1.85484" fill="#00A6C0"/>
<circle cx="68.6288" cy="90.8871" r="1.85484" fill="#00A6C0"/>
<circle cx="68.6288" cy="113.145" r="1.85484" fill="#00A6C0"/>
<circle cx="90.8871" cy="1.85484" r="1.85484" fill="#00A6C0"/>
<circle cx="90.8871" cy="24.1127" r="1.85484" fill="#00A6C0"/>
<circle cx="90.8871" cy="46.371" r="1.85484" fill="#00A6C0"/>
<circle cx="90.8871" cy="68.6292" r="1.85484" fill="#00A6C0"/>
<circle cx="90.8871" cy="90.8871" r="1.85484" fill="#00A6C0"/>
<circle cx="90.8871" cy="113.145" r="1.85484" fill="#00A6C0"/>
<circle cx="113.145" cy="1.85484" r="1.85484" fill="#00A6C0"/>
<circle cx="113.145" cy="24.1127" r="1.85484" fill="#00A6C0"/>
<circle cx="113.145" cy="46.371" r="1.85484" fill="#00A6C0"/>
<circle cx="113.145" cy="68.6292" r="1.85484" fill="#00A6C0"/>
<circle cx="113.145" cy="90.8871" r="1.85484" fill="#00A6C0"/>
<circle cx="113.145" cy="113.145" r="1.85484" fill="#00A6C0"/>
</svg>
