<svg width="24" height="24" viewBox="0 0 24 24" fill="none"
    xmlns="http://www.w3.org/2000/svg">
    <path d="M9.696 13.2478H7.32C6.936 13.2478 6.816 13.1038 6.816 12.7438V9.83983C6.816 9.45583 6.96 9.33583 7.32 9.33583H9.696V7.22383C9.696 6.26383 9.864 5.35183 10.344 4.51183C10.848 3.64783 11.568 3.07183 12.48 2.73583C13.08 2.51983 13.68 2.42383 14.328 2.42383H16.68C17.016 2.42383 17.16 2.56783 17.16 2.90383V5.63983C17.16 5.97583 17.016 6.11983 16.68 6.11983C16.032 6.11983 15.384 6.11983 14.736 6.14383C14.088 6.14383 13.752 6.45583 13.752 7.12783C13.728 7.84783 13.752 8.54383 13.752 9.28783H16.536C16.92 9.28783 17.064 9.43183 17.064 9.81583V12.7198C17.064 13.1038 16.944 13.2238 16.536 13.2238H13.752V21.0478C13.752 21.4558 13.632 21.5998 13.2 21.5998H10.2C9.84 21.5998 9.696 21.4558 9.696 21.0958V13.2478Z" fill="#55B39E"/>
</svg>
