<svg xmlns="http://www.w3.org/2000/svg" version="1.1"
    xmlns:xlink="http://www.w3.org/1999/xlink" width="512" height="512" x="0" y="0" viewBox="0 0 512 512" style="enable-background:new 0 0 512 512" xml:space="preserve" class="">
    <g>
        <g fill-rule="evenodd" clip-rule="evenodd">
            <path fill="#f34235" d="M126.159.003h259.682c67.068 0 121.947 54.879 121.947 121.947v268.1c0 67.068-54.879 121.947-121.947 121.947H126.159c-67.068 0-121.946-54.879-121.946-121.947v-268.1C4.213 54.882 59.091.003 126.159.003z" opacity="1" data-original="#f34235" class=""></path>
            <path fill="#ffffff" d="M201.39 293.389v-74.778c0-2.324.624-4.535 1.814-6.463 1.134-1.871 2.778-3.458 4.876-4.649a13.966 13.966 0 0 1 6.491-1.871c2.211-.085 4.45.34 6.605 1.332l81.695 37.361c2.381 1.105 4.28 2.721 5.613 4.677 1.389 2.041 2.126 4.45 2.126 7.001s-.737 4.932-2.126 6.973c-1.332 1.984-3.231 3.6-5.613 4.677l-81.695 37.389c-2.154.964-4.394 1.417-6.605 1.333a14.657 14.657 0 0 1-6.491-1.871c-2.098-1.191-3.742-2.778-4.876-4.649a12.218 12.218 0 0 1-1.814-6.462zM367.756 137.03H144.244c-11.934 0-22.791 4.875-30.642 12.728-7.88 7.88-12.756 18.709-12.756 30.671v151.144c0 11.934 4.876 22.791 12.756 30.642 7.852 7.881 18.709 12.756 30.642 12.756h223.512c11.962 0 22.791-4.875 30.671-12.756 7.852-7.852 12.728-18.708 12.728-30.642V180.428c0-11.962-4.876-22.791-12.728-30.671-7.881-7.852-18.709-12.727-30.671-12.727z" opacity="1" data-original="#ffffff" class=""></path>
        </g>
    </g>
</svg>