<svg width="60" height="60" viewBox="0 0 60 60" fill="none" xmlns="http://www.w3.org/2000/svg">
<rect x="1" y="1" width="58" height="58" rx="29" stroke="#0090A6" stroke-width="2"/>
<path fill-rule="evenodd" clip-rule="evenodd" d="M30.0016 19.3327C25.6664 19.3327 22.4212 22.1258 22.0393 25.3602C22.2021 25.4301 22.3591 25.5018 22.5013 25.5669C22.9762 25.7791 23.8716 26.1791 24.2126 27.1886C24.3367 27.5556 24.3357 27.9481 24.3348 28.3133V34.352C24.3357 34.7172 24.3367 35.1096 24.2126 35.4768C23.8716 36.4863 22.9762 36.8863 22.5013 37.0984C22.0174 37.3199 21.3631 37.6185 20.8861 37.6572C20.3563 37.7 19.8199 37.5868 19.3545 37.3256C18.9318 37.0884 18.6145 36.7013 18.2931 36.3091C18.1769 36.168 17.9569 35.9084 17.8024 35.7293C17.5199 35.402 17.1992 35.0304 16.9347 34.6843C16.4978 34.1125 16.0601 33.4275 15.8426 32.6315C15.6098 31.7791 15.6098 30.8863 15.8426 30.0339C16.0004 29.4563 16.2859 28.9465 16.6628 28.4115C17.0278 27.8933 17.6494 27.134 18.2574 26.3955C18.3554 26.2712 18.4902 26.1003 18.5898 25.9861C18.7703 25.7794 19.02 25.5275 19.3545 25.3397L19.3608 25.3362C19.7527 20.332 24.549 16.666 30.0016 16.666C35.4542 16.666 40.2505 20.332 40.6425 25.3362L40.6486 25.3397C40.9832 25.5275 41.2329 25.7794 41.4134 25.9861C41.513 26.1003 41.6478 26.2712 41.7458 26.3955C42.3538 27.134 42.9754 27.8933 43.3405 28.4115C43.7173 28.9465 44.0028 29.4563 44.1606 30.0339C44.3934 30.8863 44.3934 31.7791 44.1606 32.6315C43.9432 33.4275 43.5054 34.1125 43.0685 34.6843C42.8041 35.0304 42.4834 35.402 42.2009 35.7293C42.0465 35.9084 41.8264 36.168 41.7101 36.3091C41.3937 36.6951 41.0812 37.0764 40.6682 37.3145V37.7327C40.6682 41.0877 37.3905 43.3327 34.0016 43.3327H31.3349C30.5985 43.3327 30.0016 42.7357 30.0016 41.9993C30.0016 41.2629 30.5985 40.666 31.3349 40.666H34.0016C36.5037 40.666 38.0016 39.0904 38.0016 37.7327V37.3212C37.8253 37.2464 37.655 37.1685 37.502 37.0984C37.027 36.8863 36.1316 36.4863 35.7906 35.4768C35.6665 35.1096 35.6676 34.7172 35.6684 34.352V28.3133C35.6676 27.9481 35.6665 27.5556 35.7906 27.1886C36.1316 26.1791 37.027 25.7791 37.502 25.5669C37.6441 25.5018 37.801 25.4301 37.964 25.3602C37.5821 22.1258 34.3368 19.3327 30.0016 19.3327Z" fill="#0090A6"/>
</svg>
