<svg width="32" height="32" viewBox="0 0 32 32" fill="none" xmlns="http://www.w3.org/2000/svg">
<rect width="32" height="32" rx="6" fill="#CFF9FF"/>
<path fill-rule="evenodd" clip-rule="evenodd" d="M11.1528 14.6104C10.338 14.6104 10.168 14.7703 10.168 15.5363V16.9253C10.168 17.6913 10.338 17.8512 11.1528 17.8512H13.1225V23.4068C13.1225 24.1728 13.2926 24.3327 14.1074 24.3327H16.0771C16.8919 24.3327 17.0619 24.1728 17.0619 23.4068V17.8512H19.2736C19.8916 17.8512 20.0508 17.7383 20.2206 17.1797L20.6426 15.7908C20.9334 14.8338 20.7542 14.6104 19.6956 14.6104H17.0619V12.2956C17.0619 11.7843 17.5028 11.3697 18.0467 11.3697H20.8498C21.6646 11.3697 21.8346 11.2098 21.8346 10.4438V8.59194C21.8346 7.82589 21.6646 7.66602 20.8498 7.66602H18.0467C15.3271 7.66602 13.1225 9.73877 13.1225 12.2956V14.6104H11.1528Z" stroke="#0090A6" stroke-width="1.25" stroke-linejoin="round"/>
</svg>
