<svg width="32" height="32" viewBox="0 0 32 32" fill="none" xmlns="http://www.w3.org/2000/svg">
<rect width="32" height="32" rx="6" fill="#CFF9FF"/>
<path d="M8.08203 16.0007C8.08203 12.2687 8.08203 10.4027 9.2414 9.24335C10.4008 8.08398 12.2667 8.08398 15.9987 8.08398C19.7306 8.08398 21.5966 8.08398 22.756 9.24335C23.9154 10.4027 23.9154 12.2687 23.9154 16.0007C23.9154 19.7326 23.9154 21.5986 22.756 22.758C21.5966 23.9173 19.7306 23.9173 15.9987 23.9173C12.2667 23.9173 10.4008 23.9173 9.2414 22.758C8.08203 21.5986 8.08203 19.7326 8.08203 16.0007Z" stroke="#0090A6" stroke-width="1.25" stroke-linejoin="round"/>
<path d="M19.75 16C19.75 18.0711 18.0711 19.75 16 19.75C13.9289 19.75 12.25 18.0711 12.25 16C12.25 13.9289 13.9289 12.25 16 12.25C18.0711 12.25 19.75 13.9289 19.75 16Z" stroke="#0090A6" stroke-width="1.25"/>
<path d="M20.5899 11.416H20.582" stroke="#0090A6" stroke-width="1.66667" stroke-linecap="round" stroke-linejoin="round"/>
</svg>
