<svg width="32" height="32" viewBox="0 0 32 32" fill="none" xmlns="http://www.w3.org/2000/svg">
<rect width="32" height="32" rx="6" fill="#CFF9FF"/>
<path d="M11.418 13.916H7.66797V24.3327H11.418V13.916Z" stroke="#0090A6" stroke-width="1.25" stroke-linejoin="round"/>
<path d="M11.418 9.54102C11.418 10.5765 10.5785 11.416 9.54297 11.416C8.50744 11.416 7.66797 10.5765 7.66797 9.54102C7.66797 8.50548 8.50744 7.66602 9.54297 7.66602C10.5785 7.66602 11.418 8.50548 11.418 9.54102Z" stroke="#0090A6" stroke-width="1.25" stroke-linejoin="round"/>
<path d="M17.6681 13.916H13.918V24.3327H17.6681V19.1245C17.6681 18.3191 18.3209 17.6662 19.1263 17.6662C19.9317 17.6662 20.5846 18.3191 20.5846 19.1245V24.3327H24.3336L24.3347 17.6662C24.3347 15.5952 22.365 13.9162 20.4153 13.9162C19.3054 13.9162 18.3152 14.4603 17.6681 15.311V13.916Z" stroke="#0090A6" stroke-width="1.25" stroke-linejoin="round"/>
</svg>
