<svg width="20" height="21" viewBox="0 0 20 21" fill="none" xmlns="http://www.w3.org/2000/svg">
<path d="M6.66481 7.16798L7.09095 7.62517L7.43321 7.30616L7.22354 6.88789L6.66481 7.16798ZM4.15842 2.16798L4.71714 1.88789C4.63218 1.71839 4.47485 1.59663 4.28946 1.55687C4.10407 1.51711 3.91065 1.56367 3.76365 1.68343L4.15842 2.16798ZM13.3312 13.8347L13.6113 13.276L13.1931 13.0663L12.8741 13.4086L13.3312 13.8347ZM18.3312 16.3411L18.8158 16.7359C18.9356 16.5889 18.9821 16.3955 18.9424 16.2101C18.9026 16.0247 18.7808 15.8674 18.6113 15.7824L18.3312 16.3411ZM1.12539 6.93412C1.36844 8.13853 1.77342 9.32706 2.59802 10.7643L3.68224 10.1423C2.92617 8.82445 2.56788 7.76308 2.35073 6.68705L1.12539 6.93412ZM3.56628 10.9105L7.09095 7.62517L6.23867 6.71078L2.71398 9.99614L3.56628 10.9105ZM7.22354 6.88789L4.71714 1.88789L3.59968 2.44806L6.10608 7.44806L7.22354 6.88789ZM3.76365 1.68343C2.50352 2.71008 0.611974 4.38549 1.12539 6.93412L2.35073 6.68705C2.00088 4.9504 3.23301 3.72808 4.55318 2.65252L3.76365 1.68343ZM2.59802 10.7643C3.42796 12.2109 4.49129 13.5805 5.70576 14.7941L6.58964 13.9101C5.44799 12.7693 4.45353 11.4866 3.68224 10.1423L2.59802 10.7643ZM13.8121 18.1488C12.7361 17.9316 11.6748 17.5734 10.357 16.8173L9.73489 17.9016C11.1721 18.7261 12.3605 19.1311 13.5649 19.3741L13.8121 18.1488ZM10.5031 17.7856L13.7885 14.2609L12.8741 13.4086L9.58873 16.9333L10.5031 17.7856ZM13.0511 14.3935L18.0511 16.8999L18.6113 15.7824L13.6113 13.276L13.0511 14.3935ZM17.8467 15.9464C16.7711 17.2666 15.5488 18.4986 13.8121 18.1488L13.5649 19.3741C16.1135 19.8876 17.7891 17.9961 18.8158 16.7359L17.8467 15.9464ZM10.357 16.8173C9.01264 16.0461 7.7305 15.0518 6.58964 13.9101L5.70576 14.7941C6.91931 16.0085 8.28827 17.0716 9.73489 17.9016L10.357 16.8173Z" fill="#363636"/>
</svg>
