<svg width="141" height="102" viewBox="0 0 141 102" fill="none" xmlns="http://www.w3.org/2000/svg">
<path fill-rule="evenodd" clip-rule="evenodd" d="M114.097 48.084C113.309 47.1886 112.634 46.4134 112.28 46.0018C110.13 43.4922 104.033 37.907 101.119 32.5859C98.8955 28.5269 98.5128 24.6092 101.97 21.9226C105.112 19.4808 109.633 20.0383 114.514 22.4981C125.019 27.7924 137.392 41.693 140.046 46.8577C140.335 47.4217 140.114 48.1119 139.55 48.4013C138.989 48.6895 138.299 48.4687 138.009 47.9047C135.462 42.949 123.567 29.626 113.482 24.5432C109.54 22.5571 105.913 21.7597 103.375 23.7327C100.869 25.6788 101.516 28.5422 103.128 31.4846C105.962 36.6638 111.925 42.0685 114.02 44.5109C115.333 46.0427 120.504 51.7435 120.829 52.3389C121.237 53.0841 120.801 53.5887 120.645 53.7435C120.525 53.8637 119.885 54.424 119.053 53.7984C107.175 44.8853 82.7791 39.4294 60.84 42.7003C39.0937 45.9422 19.7176 57.8232 17.6571 83.7812C17.6059 84.4116 17.0532 84.8825 16.424 84.8339C15.7936 84.7827 15.3226 84.2301 15.3738 83.5997C17.5333 56.4015 37.7189 43.8306 60.5006 40.434C79.7008 37.5708 100.714 41.2725 114.097 48.084Z" fill="#00A6C0"/>
<path fill-rule="evenodd" clip-rule="evenodd" d="M16.8038 82.358C18.6706 80.4056 20.4673 78.4023 22.4869 76.5938C27.8667 71.7749 34.4774 67.9071 41.5127 66.1632C42.1288 66.012 42.7488 66.3875 42.9015 66.9998C43.0527 67.6159 42.6772 68.2358 42.0649 68.3885C35.3868 70.0395 29.1205 73.7284 24.0168 78.3008C21.7061 80.372 19.6892 82.7045 17.5198 84.9152C17.4102 85.0242 16.4969 86.0136 16.2467 86.1694C15.6664 86.5357 15.1921 86.3168 14.9857 86.1873C14.8119 86.0813 14.6291 85.9127 14.4965 85.6364C14.3888 85.4091 14.2859 84.9297 14.2845 84.2595C14.2736 82.1126 14.9668 77.1014 14.9934 76.2668C15.3012 66.6998 13.9813 57.7477 12.8275 48.288C12.7531 47.6598 13.2003 47.0871 13.8273 47.0101C14.4543 46.9331 15.0245 47.3815 15.1014 48.0085C16.2707 57.5879 17.5945 66.6553 17.2817 76.3384C17.2653 76.9121 16.9991 80.0844 16.8038 82.358Z" fill="#00A6C0"/>
</svg>
