<svg width="50" height="50" viewBox="0 0 50 50" fill="none" xmlns="http://www.w3.org/2000/svg">
<g clip-path="url(#clip0_383_775)">
<path fill-rule="evenodd" clip-rule="evenodd" d="M40.1638 29.9234C40.0158 29.5127 39.8905 29.1582 39.8252 28.9704C39.4308 27.8272 38.1066 25.1066 37.8305 22.904C37.6193 21.2236 38.0158 19.8388 39.5536 19.3892C40.9513 18.9806 42.4148 19.7781 43.7454 21.2715C46.6089 24.4857 48.9511 30.8802 49.1599 32.9947C49.1825 33.2255 49.0146 33.4307 48.7838 33.4534C48.554 33.476 48.3488 33.3081 48.3261 33.0772C48.1253 31.0481 45.8683 24.9146 43.1194 21.8289C42.0448 20.623 40.9175 19.8639 39.7884 20.1942C38.674 20.5196 38.5091 21.5811 38.6623 22.7993C38.9305 24.943 40.2333 27.5841 40.6179 28.697C40.8587 29.3948 41.8521 32.0302 41.8828 32.2766C41.9216 32.5851 41.7052 32.6981 41.6314 32.7299C41.5742 32.7546 41.2813 32.8593 41.082 32.5345C38.2379 27.9041 30.6685 22.7674 22.7621 20.931C14.9251 19.1107 6.73333 20.5492 2.54217 29.1067C2.43998 29.3143 2.18858 29.4003 1.98097 29.2992C1.77331 29.197 1.68729 28.9456 1.78949 28.738C6.18108 19.7717 14.7411 18.2072 22.9513 20.114C29.8707 21.7209 36.5245 25.8058 40.1638 29.9234Z" fill="#00A6C0"/>
<path fill-rule="evenodd" clip-rule="evenodd" d="M2.44313 28.507C3.34097 28.0935 4.22178 27.6532 5.15226 27.3092C7.63109 26.3925 10.401 25.9649 13.0298 26.3172C13.2598 26.3486 13.4203 26.5597 13.39 26.7886C13.3586 27.0187 13.1475 27.1791 12.9186 27.1488C10.4238 26.8129 7.79516 27.2259 5.44346 28.0959C4.37859 28.4901 3.37853 29.0128 2.343 29.4735C2.29103 29.4959 1.84718 29.7098 1.7411 29.7292C1.49435 29.7759 1.36238 29.6376 1.30953 29.5658C1.26462 29.5063 1.22509 29.4244 1.21709 29.3125C1.21101 29.2207 1.24042 29.0437 1.33008 28.8154C1.61501 28.0833 2.52463 26.4709 2.64591 26.1905C4.03687 22.9759 4.79123 19.7517 5.67034 16.377C5.72949 16.1532 5.95867 16.0184 6.18243 16.0765C6.40618 16.1346 6.53994 16.3639 6.48184 16.5876C5.59188 20.0051 4.82339 23.269 3.41506 26.5225C3.33235 26.7156 2.81525 27.7594 2.44313 28.507Z" fill="#00A6C0"/>
</g>
<defs>
<clipPath id="clip0_383_775">
<rect width="47.7813" height="47.7813" fill="white" transform="matrix(-0.99907 0.0431093 0.0431093 0.99907 47.7368 0)"/>
</clipPath>
</defs>
</svg>
