<svg width="35" height="35" viewBox="0 0 35 35" fill="none" xmlns="http://www.w3.org/2000/svg">
	<path d="M31.5575 30.604H3.22412C2.64329 30.604 2.16162 31.0857 2.16162 31.6665C2.16162 32.2473 2.64329 32.729 3.22412 32.729H31.5575C32.1383 32.729 32.62 32.2473 32.62 31.6665C32.62 31.0857 32.1383 30.604 31.5575 30.604Z" fill="white" />
	<path d="M24.474 3.3335H10.3073C6.05729 3.3335 4.64062 5.86933 4.64062 9.00016V31.6668H30.1406V9.00016C30.1406 5.86933 28.724 3.3335 24.474 3.3335ZM14.5573 24.9377H10.3073C9.72646 24.9377 9.24479 24.456 9.24479 23.8752C9.24479 23.2943 9.72646 22.8127 10.3073 22.8127H14.5573C15.1381 22.8127 15.6198 23.2943 15.6198 23.8752C15.6198 24.456 15.1381 24.9377 14.5573 24.9377ZM14.5573 18.5627H10.3073C9.72646 18.5627 9.24479 18.081 9.24479 17.5002C9.24479 16.9193 9.72646 16.4377 10.3073 16.4377H14.5573C15.1381 16.4377 15.6198 16.9193 15.6198 17.5002C15.6198 18.081 15.1381 18.5627 14.5573 18.5627ZM14.5573 12.1877H10.3073C9.72646 12.1877 9.24479 11.706 9.24479 11.1252C9.24479 10.5443 9.72646 10.0627 10.3073 10.0627H14.5573C15.1381 10.0627 15.6198 10.5443 15.6198 11.1252C15.6198 11.706 15.1381 12.1877 14.5573 12.1877ZM24.474 24.9377H20.224C19.6431 24.9377 19.1615 24.456 19.1615 23.8752C19.1615 23.2943 19.6431 22.8127 20.224 22.8127H24.474C25.0548 22.8127 25.5365 23.2943 25.5365 23.8752C25.5365 24.456 25.0548 24.9377 24.474 24.9377ZM24.474 18.5627H20.224C19.6431 18.5627 19.1615 18.081 19.1615 17.5002C19.1615 16.9193 19.6431 16.4377 20.224 16.4377H24.474C25.0548 16.4377 25.5365 16.9193 25.5365 17.5002C25.5365 18.081 25.0548 18.5627 24.474 18.5627ZM24.474 12.1877H20.224C19.6431 12.1877 19.1615 11.706 19.1615 11.1252C19.1615 10.5443 19.6431 10.0627 20.224 10.0627H24.474C25.0548 10.0627 25.5365 10.5443 25.5365 11.1252C25.5365 11.706 25.0548 12.1877 24.474 12.1877Z" fill="white" />
</svg>
