<svg width="162" height="222" viewBox="0 0 162 222" fill="none" xmlns="http://www.w3.org/2000/svg">
<path d="M2.56103 -77C2.56103 -55.8946 -2.39169 -47.6985 5.34655 -27.7933C7.03861 -23.4408 13.1728 -7.98797 15.476 -3.95086C19.6814 3.4203 22.443 10.2952 27.8846 16.8479C34.7219 27.0781 40.4026 32.5425 46.624 38.7739C53.304 45.4646 62.0507 51.573 70.3156 56.3034C78.4916 60.9829 86.6693 65.3928 95.6954 68.3092C99.1905 69.4384 102.896 70.1851 106.556 70.5074C111.102 70.9077 115.881 71.386 120.316 70.5074C126.143 69.3528 134.535 62.9208 137.029 57.0925C143.408 42.1844 127.651 24.9963 112.409 27.0781C105.574 28.0116 99.2677 33.6101 95.1608 38.7739C89.8896 45.4015 87.9997 53.7436 87.7044 62.0245C87.3275 72.5948 88.4184 82.6581 91.8406 92.7434C96.2795 105.825 101.267 113.973 108.413 125.661C124.95 152.702 154.098 174.626 181.852 187.803C211.087 201.684 242.725 210.565 274.508 217.367C287.433 220.133 300.939 221.627 314.097 220.749C325.984 219.955 338.469 219.606 350 216.718" stroke="#00A6C0" stroke-width="2" stroke-linecap="round"/>
</svg>
