<svg width="37" height="37" viewBox="0 0 37 37" fill="none" xmlns="http://www.w3.org/2000/svg">
	<path d="M9.26855 20C5.12855 20 1.76855 23.345 1.76855 27.5C1.76855 31.655 5.12855 35 9.26855 35C13.4086 35 16.7686 31.64 16.7686 27.5C16.7686 23.36 13.4236 20 9.26855 20ZM6.20855 24.44H9.26855C9.83855 24.44 10.2886 24.905 10.2886 25.46C10.2886 26.015 9.83855 26.48 9.26855 26.48H6.20855C5.63855 26.48 5.18855 26.015 5.18855 25.46C5.18855 24.905 5.63855 24.44 6.20855 24.44ZM12.3286 30.56H6.20855C5.63855 30.56 5.18855 30.095 5.18855 29.54C5.18855 28.985 5.65355 28.52 6.20855 28.52H12.3436C12.9136 28.52 13.3636 28.985 13.3636 29.54C13.3636 30.095 12.8986 30.56 12.3286 30.56Z" fill="white" />
	<path d="M25.7686 5H10.7686C6.26855 5 3.26855 7.25 3.26855 12.5V17.21C3.26855 18.305 4.39355 18.995 5.39855 18.56C7.04855 17.84 8.92355 17.57 10.8886 17.885C14.8186 18.53 18.0286 21.635 18.8236 25.535C19.0486 26.675 19.0786 27.785 18.9286 28.85C18.8086 29.735 19.5286 30.515 20.4136 30.515H25.7686C30.2686 30.515 33.2686 28.265 33.2686 23.015V12.5C33.2686 7.25 30.2686 5 25.7686 5ZM26.4736 13.385L21.7786 17.135C20.7886 17.93 19.5286 18.32 18.2686 18.32C17.0086 18.32 15.7336 17.93 14.7586 17.135L10.0636 13.385C9.58356 12.995 9.50855 12.275 9.88355 11.795C10.2736 11.315 10.9786 11.225 11.4586 11.615L16.1536 15.365C17.2936 16.28 19.2286 16.28 20.3686 15.365L25.0636 11.615C25.5436 11.225 26.2636 11.3 26.6386 11.795C27.0286 12.275 26.9536 12.995 26.4736 13.385Z" fill="white" />
</svg>
