<svg width="108" height="78" viewBox="0 0 108 78" fill="none" xmlns="http://www.w3.org/2000/svg">
<path fill-rule="evenodd" clip-rule="evenodd" d="M20.2936 36.903C20.8986 36.2158 21.4163 35.6209 21.6883 35.305C23.3385 33.379 28.0179 29.0925 30.2536 25.0087C31.9604 21.8937 32.2541 18.8869 29.6009 16.8251C27.1893 14.9511 23.7201 15.3789 19.974 17.2668C11.9117 21.3299 2.41565 31.9981 0.379118 35.9619C0.157025 36.3947 0.326477 36.9244 0.759317 37.1465C1.19013 37.3677 1.71978 37.1982 1.94188 36.7654C3.89715 32.9621 13.0257 22.7372 20.7655 18.8363C23.7909 17.312 26.5748 16.7001 28.5225 18.2143C30.4456 19.7078 29.9493 21.9054 28.7119 24.1636C26.5368 28.1384 21.9606 32.2863 20.3527 34.1608C19.3454 35.3364 15.3769 39.7115 15.1271 40.1684C14.8139 40.7403 15.1488 41.1276 15.2683 41.2465C15.3607 41.3387 15.8514 41.7687 16.4904 41.2886C25.6062 34.4481 44.3291 30.2609 61.1665 32.7712C77.856 35.2593 92.7264 44.3774 94.3078 64.2992C94.3471 64.783 94.7712 65.1445 95.2541 65.1072C95.7379 65.0678 96.0994 64.6437 96.0601 64.1599C94.4028 43.2863 78.9111 33.6386 61.427 31.0319C46.6916 28.8345 30.5651 31.6754 20.2936 36.903Z" fill="#00A6C0"/>
<path fill-rule="evenodd" clip-rule="evenodd" d="M94.9628 63.2068C93.5301 61.7085 92.1512 60.171 90.6012 58.7831C86.4724 55.0847 81.399 52.1163 75.9996 50.778C75.5268 50.6619 75.051 50.9501 74.9338 51.42C74.8178 51.8928 75.106 52.3686 75.5759 52.4857C80.701 53.7529 85.5102 56.584 89.4271 60.0931C91.2004 61.6826 92.7484 63.4728 94.4133 65.1694C94.4974 65.253 95.1984 66.0124 95.3903 66.1319C95.8357 66.4131 96.1997 66.245 96.3581 66.1457C96.4915 66.0643 96.6318 65.9349 96.7336 65.7229C96.8162 65.5484 96.8952 65.1805 96.8962 64.6661C96.9046 63.0185 96.3726 59.1726 96.3522 58.532C96.116 51.1898 97.129 44.3194 98.0145 37.0594C98.0716 36.5773 97.7284 36.1377 97.2472 36.0786C96.7659 36.0195 96.3284 36.3637 96.2693 36.8449C95.372 44.1967 94.3559 51.1556 94.5961 58.587C94.6086 59.0273 94.8129 61.4619 94.9628 63.2068Z" fill="#00A6C0"/>
</svg>
