<svg width="31" height="31" viewBox="0 0 31 31" fill="none" xmlns="http://www.w3.org/2000/svg">
	<path d="M30.2686 24.9888C30.2686 25.5296 30.1484 26.0855 29.893 26.6263C29.6376 27.1671 29.3071 27.6779 28.8715 28.1586C28.1354 28.9698 27.3241 29.5557 26.4078 29.9312C25.5064 30.3068 24.5299 30.5021 23.4784 30.5021C21.9461 30.5021 20.3086 30.1416 18.581 29.4055C16.8534 28.6694 15.1258 27.6779 13.4133 26.431C11.6857 25.1691 10.0482 23.772 8.48588 22.2247C6.93856 20.6623 5.54146 19.0249 4.29459 17.3123C3.06275 15.5997 2.07126 13.8872 1.35018 12.1896C0.629096 10.4771 0.268555 8.83961 0.268555 7.27726C0.268555 6.25573 0.448825 5.27926 0.809366 4.37791C1.16991 3.46154 1.74076 2.62028 2.53696 1.86915C3.4984 0.92273 4.54998 0.457031 5.66164 0.457031C6.08228 0.457031 6.50291 0.547167 6.87847 0.727437C7.26906 0.907707 7.61457 1.17811 7.88498 1.5687L11.3702 6.48107C11.6406 6.85663 11.8359 7.20215 11.9711 7.53264C12.1063 7.84812 12.1814 8.16359 12.1814 8.44902C12.1814 8.80956 12.0763 9.1701 11.866 9.51562C11.6707 9.86114 11.3852 10.2217 11.0247 10.5822L9.88298 11.769C9.71773 11.9342 9.64262 12.1295 9.64262 12.3699C9.64262 12.4901 9.65764 12.5952 9.68768 12.7154C9.73275 12.8356 9.77782 12.9257 9.80786 13.0159C10.0783 13.5116 10.544 14.1576 11.205 14.9388C11.881 15.7199 12.6021 16.5161 13.3832 17.3123C14.1944 18.1085 14.9756 18.8446 15.7718 19.5206C16.553 20.1816 17.1989 20.6323 17.7097 20.9027C17.7848 20.9327 17.875 20.9778 17.9801 21.0229C18.1003 21.0679 18.2205 21.083 18.3557 21.083C18.6111 21.083 18.8064 20.9928 18.9716 20.8276L20.1133 19.7009C20.4889 19.3253 20.8494 19.0399 21.1949 18.8596C21.5405 18.6493 21.886 18.5442 22.2615 18.5442C22.547 18.5442 22.8474 18.6043 23.1779 18.7395C23.5084 18.8747 23.8539 19.07 24.2295 19.3253L29.202 22.8556C29.5925 23.126 29.8629 23.4415 30.0282 23.8171C30.1784 24.1926 30.2686 24.5682 30.2686 24.9888Z" fill="white" />
</svg>
