<svg width="90" height="90" viewBox="0 0 90 90" fill="none"
    xmlns="http://www.w3.org/2000/svg">
    <circle cx="45" cy="45" r="45" fill="#ECF7F5"/>
    <path d="M51.3333 28.6833C50.65 27.9999 49.4667 28.4666 49.4667 29.4166V35.2333C49.4667 37.6666 51.5333 39.6833 54.05 39.6833C55.6333 39.6999 57.8333 39.6999 59.7167 39.6999C60.6667 39.6999 61.1667 38.5833 60.5 37.9166C58.1 35.4999 53.8 31.1499 51.3333 28.6833Z" fill="#55B39E"/>
    <path d="M59.1667 41.9834H54.35C50.4 41.9834 47.1833 38.7667 47.1833 34.8167V30C47.1833 29.0834 46.4333 28.3334 45.5167 28.3334H38.45C33.3167 28.3334 29.1667 31.6667 29.1667 37.6167V52.3834C29.1667 58.3334 33.3167 61.6667 38.45 61.6667H51.55C56.6833 61.6667 60.8333 58.3334 60.8333 52.3834V43.65C60.8333 42.7334 60.0833 41.9834 59.1667 41.9834ZM44.1667 54.5834H37.5C36.8167 54.5834 36.25 54.0167 36.25 53.3334C36.25 52.65 36.8167 52.0834 37.5 52.0834H44.1667C44.85 52.0834 45.4167 52.65 45.4167 53.3334C45.4167 54.0167 44.85 54.5834 44.1667 54.5834ZM47.5 47.9167H37.5C36.8167 47.9167 36.25 47.35 36.25 46.6667C36.25 45.9834 36.8167 45.4167 37.5 45.4167H47.5C48.1833 45.4167 48.75 45.9834 48.75 46.6667C48.75 47.35 48.1833 47.9167 47.5 47.9167Z" fill="#55B39E"/>
</svg>
