<svg width="90" height="90" viewBox="0 0 90 90" fill="none"
    xmlns="http://www.w3.org/2000/svg">
    <circle cx="45" cy="45" r="45" fill="#ECF7F5"/>
    <g clip-path="url(#clip0_1754_1819)">
        <path d="M50.2323 39.5275C63.246 39.5275 62.2846 39.5247 62.485 39.5325C62.3639 39.0684 62.1211 38.645 61.7816 38.3061L58.2137 34.7382C57.4427 33.9672 56.2591 33.743 55.268 34.1807C54.7358 34.4159 54.1017 34.2972 53.6901 33.8856C53.2785 33.4741 53.1599 32.8399 53.3949 32.3078C53.8326 31.317 53.6086 30.1331 52.8374 29.362L49.2696 25.7941C48.212 24.7367 46.4914 24.7366 45.4338 25.7941L40.97 30.2579L50.2323 39.5275ZM39.3062 31.9218L31.7005 39.5275H46.9047C46.8772 39.4999 46.2953 38.9174 39.3062 31.9218ZM63.3112 52.1156C64.3213 51.7246 65 50.729 65 49.6385V44.5927C65 43.0972 63.7832 41.8804 62.2877 41.8804H56.7647V64.9997H62.2877C63.7832 64.9997 65 63.7829 65 62.2874V57.2417C65 56.1512 64.3214 55.1556 63.3113 54.7645C62.7687 54.5543 62.4042 54.0221 62.4042 53.44C62.4042 52.858 62.7687 52.3258 63.3112 52.1156ZM25 44.5927V49.6385C25 50.729 25.6787 51.7246 26.6887 52.1156C27.2313 52.3258 27.5958 52.858 27.5958 53.44C27.5958 54.0221 27.2312 54.5543 26.6886 54.7645C25.6786 55.1556 25 56.1512 25 57.2417V62.2874C25 63.7829 26.2168 64.9997 27.7123 64.9997H54.4118V41.8804H27.7123C26.2168 41.8804 25 43.0971 25 44.5927ZM33.2353 47.3527H50.8824V49.7056H33.2353V47.3527ZM33.2353 52.0585H50.8824V54.4115H33.2353V52.0585ZM33.2353 56.7644H50.8824V59.1174H33.2353V56.7644Z" fill="#55B39E"/>
    </g>
    <defs>
        <clipPath id="clip0_1754_1819">
            <rect width="40" height="40" fill="white" transform="translate(25 25)"/>
        </clipPath>
    </defs>
</svg>
