<svg width="90" height="90" viewBox="0 0 90 90" fill="none"
    xmlns="http://www.w3.org/2000/svg">
    <circle cx="45" cy="45" r="45" fill="#FEF8EA"/>
    <g clip-path="url(#clip0_1754_1827)">
        <path d="M63.8281 25C63.1809 25 62.6562 25.5247 62.6562 26.1719V29.8438H54.4531C52.5146 29.8438 50.9375 31.4209 50.9375 33.3594V34.5312H27.3438V31.0156C27.3438 30.3684 26.8191 29.8438 26.1719 29.8438C25.5247 29.8438 25 30.3684 25 31.0156V63.8281C25 64.4753 25.5247 65 26.1719 65C26.8191 65 27.3438 64.4753 27.3438 63.8281V60.3125H62.6562V63.8281C62.6562 64.4753 63.1809 65 63.8281 65C64.4753 65 65 64.4753 65 63.8281V26.1719C65 25.5247 64.4753 25 63.8281 25ZM50.9375 52.1094V53.2812H41.4062V41.5625H62.6562V48.5938H54.4531C52.5146 48.5938 50.9375 50.1709 50.9375 52.1094ZM32.0312 46.25H39.0625V48.5938H32.0312V46.25ZM39.0625 43.9062H32.0312V41.5625H39.0625V43.9062ZM32.0312 50.9375H39.0625V53.2812H32.0312V50.9375ZM53.2812 33.3594C53.2812 32.7132 53.807 32.1875 54.4531 32.1875H62.6562V34.5312H53.2812V33.3594ZM27.3438 41.5625H29.6875V53.2812H27.3438V41.5625ZM53.2812 53.2812V52.1094C53.2812 51.4632 53.807 50.9375 54.4531 50.9375H62.6562V53.2812H53.2812Z" fill="#FEB300"/>
    </g>
    <defs>
        <clipPath id="clip0_1754_1827">
            <rect width="40" height="40" fill="white" transform="translate(25 25)"/>
        </clipPath>
    </defs>
</svg>
