<svg width="90" height="90" viewBox="0 0 90 90" fill="none"
    xmlns="http://www.w3.org/2000/svg">
    <circle cx="45" cy="45" r="45" fill="#EEEFFD"/>
    <path d="M46.1719 52.0312C46.819 52.0312 47.3438 51.5066 47.3438 50.8594V46.1719C47.3438 45.5248 46.8192 45 46.1719 45H43.8281C43.181 45 42.6562 45.5245 42.6562 46.1719V50.8594C42.6562 51.5065 43.1809 52.0312 43.8281 52.0312H46.1719Z" fill="#9561FF"/>
    <path d="M61.4844 32.1094H53.2031V30.9375C53.2031 28.9989 51.6262 27.4219 49.6875 27.4219H40.3125C38.3739 27.4219 36.7969 28.9988 36.7969 30.9375V32.1094H28.5156C26.577 32.1094 25 33.6863 25 35.625C25 37.9201 25.2813 39.93 25.8397 41.6429C26.3981 43.3558 27.2338 44.7717 28.3428 45.8789C30.209 47.7426 32.586 48.5156 35.2551 48.5156H40.3125V46.1719C40.3125 44.2333 41.8895 42.6562 43.8281 42.6562H46.1719C48.1105 42.6562 49.6875 44.2332 49.6875 46.1719V48.5156H52.2913C54.6241 48.4187 58.44 49.128 61.656 45.927C62.7655 44.8226 63.6015 43.4041 64.1602 41.6832C64.7188 39.9623 65 37.939 65 35.625C65 33.6864 63.423 32.1094 61.4844 32.1094ZM39.1406 30.9375C39.1406 30.2909 39.6659 29.7656 40.3125 29.7656H49.6875C50.3341 29.7656 50.8594 30.2909 50.8594 30.9375V32.1094H39.1406V30.9375Z" fill="#9561FF"/>
    <path d="M52.3234 50.8594H49.6875C49.6875 52.798 48.1105 54.375 46.1719 54.375H43.8281C41.8895 54.375 40.3125 52.798 40.3125 50.8594H35.2653C31.9228 50.8594 28.987 49.8338 26.6868 47.5372C26.037 46.8885 25.4822 46.1581 25 45.377V61.4062C25 62.054 25.5241 62.5781 26.1719 62.5781H63.8281C64.4759 62.5781 65 62.054 65 61.4062V45.4252C64.5113 46.2182 63.9542 46.9469 63.3097 47.5887C59.612 51.267 55.674 50.7011 52.3234 50.8594Z" fill="#9561FF"/>
</svg>
