<svg width="90" height="90" viewBox="0 0 90 90" fill="none"
    xmlns="http://www.w3.org/2000/svg">
    <circle cx="45" cy="45" r="45" fill="#EDF8FE"/>
    <path d="M53.35 61.1754C51.7004 62.8218 49.4649 63.7465 47.1343 63.7465C44.8037 63.7465 42.5683 62.8218 40.9187 61.1754L39.0187 59.2754L39 59.2567L34.5812 54.8379C34.2583 54.5143 34.0764 54.0763 34.075 53.6192C34.0754 53.1596 34.2578 52.7189 34.5822 52.3933C34.9066 52.0677 35.3466 51.8838 35.8062 51.8817C36.2582 51.8843 36.6912 52.0638 37.0125 52.3817L40.175 55.5442C40.2918 55.6618 40.4506 55.7283 40.6165 55.7289C40.7823 55.7295 40.9416 55.6641 41.0593 55.5473C41.177 55.4304 41.2435 55.2716 41.244 55.1057C41.2446 54.9399 41.1793 54.7806 41.0625 54.6629L37.9062 51.5067L37.8937 51.4942L37.1937 50.7942C37.0331 50.6334 36.9062 50.4423 36.8204 50.232C36.7345 50.0217 36.6915 49.7963 36.6937 49.5692C36.6926 49.2276 36.7931 48.8934 36.9824 48.6092C37.1717 48.3249 37.4413 48.1033 37.7569 47.9727C38.0725 47.842 38.4198 47.8082 38.7546 47.8754C39.0895 47.9427 39.3968 48.108 39.6375 48.3504L43.5062 52.2192C43.5645 52.277 43.6336 52.3228 43.7096 52.354C43.7855 52.3852 43.8669 52.401 43.949 52.4007C44.0312 52.4005 44.1124 52.384 44.1882 52.3523C44.2639 52.3206 44.3327 52.2743 44.3906 52.216C44.4484 52.1578 44.4943 52.0887 44.5254 52.0127C44.5566 51.9367 44.5725 51.8553 44.5722 51.7732C44.5719 51.6911 44.5554 51.6098 44.5237 51.534C44.492 51.4583 44.4457 51.3895 44.3875 51.3317L39.7312 46.6754C39.5708 46.5155 39.4435 46.3256 39.3567 46.1165C39.2698 45.9073 39.225 45.6831 39.225 45.4567C39.2232 45.229 39.2672 45.0033 39.3541 44.7929C39.4411 44.5825 39.5693 44.3917 39.7312 44.2317C39.8916 44.0711 40.0821 43.9438 40.2918 43.8569C40.5014 43.77 40.7261 43.7253 40.9531 43.7253C41.18 43.7253 41.4047 43.77 41.6144 43.8569C41.824 43.9438 42.0145 44.0711 42.175 44.2317L46.8312 48.8879C46.8891 48.9462 46.9578 48.9925 47.0336 49.0242C47.1094 49.0559 47.1906 49.0723 47.2727 49.0726C47.3549 49.0729 47.4362 49.057 47.5122 49.0259C47.5882 48.9947 47.6573 48.9489 47.7156 48.891C47.7739 48.8332 47.8202 48.7644 47.8519 48.6886C47.8835 48.6129 47.9 48.5316 47.9003 48.4495C47.9006 48.3674 47.8847 48.286 47.8535 48.21C47.8224 48.134 47.7766 48.0649 47.7187 48.0067L38.9125 39.2004C38.6712 38.9588 38.5071 38.651 38.4409 38.3161C38.3748 37.9812 38.4094 37.6341 38.5406 37.3189C38.6718 37.0037 38.8935 36.7345 39.1778 36.5454C39.4621 36.3563 39.796 36.2558 40.1375 36.2567H40.1437C40.3702 36.2562 40.5946 36.3007 40.8038 36.3876C41.0131 36.4745 41.2029 36.602 41.3625 36.7629L51.4437 46.8442H51.45L53.35 48.7504C54.9949 50.3995 55.9187 52.6337 55.9187 54.9629C55.9187 57.2921 54.9949 59.5263 53.35 61.1754ZM52.7562 38.6317L49.3175 42.0704C49.2594 42.1285 49.1905 42.1746 49.1146 42.2061C49.0387 42.2375 48.9574 42.2537 48.8753 42.2537C48.7931 42.2537 48.7118 42.2375 48.6359 42.2061C48.5601 42.1746 48.4911 42.1285 48.4331 42.0704L46.5481 40.1804C46.431 40.0631 46.3653 39.9041 46.3654 39.7384C46.3655 39.5727 46.4314 39.4138 46.5487 39.2967L48.2375 37.6129C48.536 37.3136 48.8911 37.0766 49.282 36.9157C49.6729 36.7548 50.0919 36.6732 50.5147 36.6756C50.9374 36.678 51.3555 36.7643 51.7446 36.9296C52.1337 37.0949 52.486 37.3359 52.7812 37.6385C52.9071 37.7747 52.975 37.9547 52.9703 38.1402C52.9657 38.3256 52.8888 38.5019 52.7562 38.6317ZM48.6999 31.3879L46.2437 33.8379C46.082 34.0015 45.8892 34.1312 45.6767 34.2192C45.4642 34.3072 45.2362 34.3518 45.0062 34.3504C44.7753 34.3512 44.5466 34.3064 44.3331 34.2184C44.1197 34.1305 43.9257 34.0011 43.7625 33.8379L41.2312 31.3067C40.9641 31.0429 40.7525 30.7285 40.6086 30.3818C40.4648 30.0352 40.3917 29.6632 40.3937 29.2879C40.3955 28.8224 40.5101 28.3642 40.7278 27.9527C40.9455 27.5413 41.2598 27.1887 41.6437 26.9254C42.1057 26.6097 42.6528 26.4418 43.2125 26.4442C43.8546 26.4456 44.4791 26.6538 44.9937 27.0379C45.494 26.6435 46.1129 26.4299 46.75 26.4317H46.7687C47.2323 26.4342 47.6884 26.5493 48.0978 26.767C48.5071 26.9848 48.8574 27.2986 49.1187 27.6817C49.4924 28.2512 49.655 28.9335 49.5786 29.6104C49.5021 30.2873 49.1913 30.9161 48.6999 31.3879Z" fill="#00B3FF"/>
</svg>
