<svg width="90" height="90" viewBox="0 0 90 90" fill="none"
    xmlns="http://www.w3.org/2000/svg">
    <circle cx="45" cy="45" r="45" fill="#FEF8EA"/>
    <g clip-path="url(#clip0_1754_1722)">
        <path d="M31.1188 29.7208H31.1154C30.9291 29.7204 30.7446 29.7569 30.5725 29.8283C30.4003 29.8996 30.244 30.0043 30.1126 30.1363C29.9786 30.2693 29.8724 30.4276 29.8 30.602C29.7277 30.7764 29.6908 30.9634 29.6913 31.1522V52.6156C29.6913 53.4027 30.3342 54.0446 31.1245 54.0466C34.4562 54.0545 40.0382 54.7489 43.889 58.7787V36.3167C43.889 36.0499 43.8208 35.7992 43.6922 35.5918C40.5316 30.502 34.4581 29.7287 31.1188 29.7208ZM60.3088 52.6156V31.1521C60.3088 30.768 60.1592 30.4072 59.8875 30.1362C59.7561 30.0042 59.5998 29.8995 59.4277 29.8282C59.2556 29.7569 59.0711 29.7203 58.8848 29.7207H58.8813C55.5422 29.7287 49.4686 30.502 46.3079 35.5918C46.1793 35.7992 46.1113 36.0499 46.1113 36.3167V58.7786C49.9621 54.7488 55.5441 54.0544 58.8758 54.0464C59.666 54.0444 60.3088 53.4025 60.3088 52.6156Z" fill="#FEB300"/>
        <path d="M63.5689 34.6709H62.531V52.6159C62.531 54.6254 60.8937 56.2641 58.8811 56.2691C56.0551 56.2758 51.3954 56.8284 48.0953 59.9518C53.8028 58.5543 59.8195 59.4628 63.2485 60.2442C63.4585 60.2926 63.6768 60.2929 63.887 60.245C64.0972 60.1971 64.2938 60.1022 64.4621 59.9675C64.6303 59.8339 64.7661 59.6639 64.8593 59.4703C64.9524 59.2766 65.0005 59.0644 65 58.8496V36.102C65.0001 35.3129 64.358 34.6709 63.5689 34.6709ZM27.469 52.6159V34.6709H26.4311C25.6422 34.6709 25 35.3129 25 36.102V58.8492C25 59.2869 25.1961 59.6944 25.5379 59.9671C25.7062 60.1019 25.9028 60.1968 26.113 60.2447C26.3232 60.2926 26.5415 60.2923 26.7515 60.2438C30.1805 59.4622 36.1973 58.5539 41.9046 59.9514C38.6046 56.8281 33.9449 56.2757 31.1189 56.2689C29.1064 56.2641 27.469 54.6254 27.469 52.6159Z" fill="#FEB300"/>
    </g>
    <defs>
        <clipPath id="clip0_1754_1722">
            <rect width="40" height="40" fill="white" transform="translate(25 25)"/>
        </clipPath>
    </defs>
</svg>
