<svg width="90" height="90" viewBox="0 0 90 90" fill="none"
    xmlns="http://www.w3.org/2000/svg">
    <circle cx="45" cy="45" r="45" fill="#EEEFFD"/>
    <g clip-path="url(#clip0_1754_1731)">
        <path d="M59.1422 30.8579C55.3647 27.0804 50.3422 25 45 25C39.6578 25 34.6353 27.0804 30.8578 30.8579C27.0803 34.6354 25 39.6578 25 45C25 50.3422 27.0803 55.3647 30.8578 59.1421C34.6353 62.9195 39.6578 65 45 65C50.3422 65 55.3647 62.9196 59.1422 59.1421C62.9197 55.3646 65 50.3422 65 45C65 39.6578 62.9197 34.6353 59.1422 30.8579ZM45 61.0744C36.1365 61.0744 28.9256 53.8634 28.9256 45C28.9256 44.9855 28.9261 44.9711 28.9262 44.9567C28.9262 44.953 28.9256 44.9495 28.9256 44.9459C28.9256 44.9397 28.9264 44.9338 28.9266 44.9277C28.9655 36.1704 36.0427 29.0456 44.7816 28.9284C44.7998 28.9276 44.818 28.9257 44.8365 28.9257C44.8476 28.9257 44.8584 28.927 44.8694 28.9273C44.913 28.927 44.9564 28.9257 45.0001 28.9257C53.8636 28.9257 61.0745 36.1366 61.0745 45.0001C61.0745 53.8635 53.8635 61.0744 45 61.0744Z" fill="#9561FF"/>
        <path d="M57.2099 45.9653C56.5563 45.9653 56.0265 45.4355 56.0265 44.7819C56.0265 44.1283 56.5563 43.5984 57.2099 43.5984H58.6364C57.9664 37.03 52.6394 31.8193 46.0199 31.3301V32.5719C46.0199 33.2255 45.49 33.7553 44.8364 33.7553C44.1828 33.7553 43.653 33.2255 43.653 32.5719V31.3584C37.1314 31.9974 31.9367 37.2257 31.3489 43.762H32.6264C33.28 43.762 33.8099 44.2918 33.8099 44.9454C33.8099 45.599 33.28 46.1288 32.6264 46.1288H31.3392C31.8834 52.7703 37.1823 58.0855 43.8166 58.6555V57.1553C43.8166 56.5017 44.3464 55.9719 45 55.9719C45.6536 55.9719 46.1835 56.5017 46.1835 57.1553V58.6555C52.872 58.0808 58.2032 52.6828 58.6731 45.9653H57.2099ZM49.7906 41.8827L45.8369 45.8365C45.727 45.9464 45.5966 46.0336 45.453 46.0931C45.3094 46.1525 45.1555 46.1832 45.0001 46.1832C44.8447 46.1832 44.6908 46.1525 44.5472 46.0931C44.4036 46.0336 44.2732 45.9464 44.1633 45.8365L37.281 38.9542C36.8188 38.4921 36.8188 37.7428 37.281 37.2806C37.7431 36.8184 38.4924 36.8184 38.9546 37.2806L45.0002 43.3261L48.1172 40.2091C48.5793 39.7469 49.3286 39.7469 49.7908 40.2091C50.2528 40.6712 50.2528 41.4205 49.7906 41.8827Z" fill="#9561FF"/>
    </g>
    <defs>
        <clipPath id="clip0_1754_1731">
            <rect width="40" height="40" fill="white" transform="translate(25 25)"/>
        </clipPath>
    </defs>
</svg>
