<svg width="90" height="90" viewBox="0 0 90 90" fill="none"
    xmlns="http://www.w3.org/2000/svg">
    <circle cx="45" cy="45" r="45" fill="#EDF8FE"/>
    <g clip-path="url(#clip0_1754_1749)">
        <path d="M64.7134 48.8415L62.187 45.9291C64.0079 43.6511 65 40.8347 65 37.8906C65 30.7827 59.2173 25 52.1094 25C45.0014 25 39.2188 30.7827 39.2188 37.8906C39.2188 44.9985 45.0015 50.7812 52.1094 50.7812H63.8281C64.0528 50.7812 64.2728 50.7166 64.4618 50.5951C64.6508 50.4736 64.8009 50.3003 64.8942 50.0959C64.9875 49.8915 65.0201 49.6645 64.988 49.4421C64.9559 49.2197 64.8606 49.0112 64.7134 48.8415ZM52.1094 45.8594C51.4622 45.8594 50.9375 45.3347 50.9375 44.6875C50.9375 44.0403 51.4622 43.5156 52.1094 43.5156C52.7566 43.5156 53.2812 44.0403 53.2812 44.6875C53.2812 45.3347 52.7566 45.8594 52.1094 45.8594ZM55.3698 37.4345C54.7987 38.0359 54.0713 38.4641 53.2813 38.6786V41.1395C53.2813 41.7867 52.7566 42.3114 52.1095 42.3114C51.4623 42.3114 50.9376 41.7867 50.9376 41.1395V37.6637C50.9376 37.0165 51.4623 36.4918 52.1095 36.4918C52.705 36.4918 53.2592 36.2534 53.6702 35.8207C54.0806 35.3884 54.2896 34.8212 54.2586 34.2236C54.2005 33.1048 53.2762 32.2105 52.1545 32.188C52.1398 32.1877 52.1251 32.1875 52.1104 32.1875C51.0389 32.1875 50.1263 32.9759 49.9781 34.038C49.9642 34.138 49.9573 34.2388 49.9573 34.3397C49.9573 34.9869 49.4327 35.5116 48.7855 35.5116C48.1383 35.5116 47.6136 34.9869 47.6136 34.3397C47.6136 34.1305 47.6282 33.9201 47.6569 33.7141C47.9711 31.4623 49.9275 29.798 52.2016 29.8447C54.5461 29.892 56.4777 31.762 56.5992 34.1021C56.6638 35.3479 56.2272 36.5314 55.3698 37.4345Z" fill="#00B3FF"/>
        <path d="M41.7969 50.9375H33.9844C33.3372 50.9375 32.8125 50.4128 32.8125 49.7656C32.8125 49.1184 33.3372 48.5937 33.9844 48.5937H41.2808C38.8593 46.1441 37.2598 42.8801 36.9367 39.254C30.2726 39.7439 25 45.3223 25 52.1093C25 55.0534 25.9921 57.8697 27.813 60.1478L25.2866 63.0602C25.1394 63.2299 25.0441 63.4384 25.012 63.6609C24.9799 63.8833 25.0125 64.1102 25.1058 64.3146C25.1991 64.519 25.3492 64.6923 25.5382 64.8139C25.7272 64.9354 25.9472 65 26.1719 65H37.8906C44.6777 65 50.2561 59.7274 50.7459 53.0632C47.8294 52.8033 45.1473 51.7173 42.9345 50.0425C42.8098 50.5558 42.3485 50.9375 41.7969 50.9375ZM41.7969 55.625H33.9844C33.3372 55.625 32.8125 55.1003 32.8125 54.4531C32.8125 53.8059 33.3372 53.2812 33.9844 53.2812H41.7969C42.4441 53.2812 42.9688 53.8059 42.9688 54.4531C42.9688 55.1003 42.4441 55.625 41.7969 55.625Z" fill="#00B3FF"/>
    </g>
    <defs>
        <clipPath id="clip0_1754_1749">
            <rect width="40" height="40" fill="white" transform="translate(25 25)"/>
        </clipPath>
    </defs>
</svg>
