<svg width="90" height="90" viewBox="0 0 90 90" fill="none"
    xmlns="http://www.w3.org/2000/svg">
    <circle cx="45" cy="45" r="45" fill="#ECF7F5"/>
    <path d="M51.6667 32.0833C51.6667 34.1499 49.9833 35.8333 47.9167 35.8333H42.0833C41.05 35.8333 40.1167 35.4166 39.4333 34.7333C38.75 34.0499 38.3333 33.1166 38.3333 32.0833C38.3333 30.0166 40.0167 28.3333 42.0833 28.3333H47.9167C48.95 28.3333 49.8833 28.7499 50.5667 29.4333C51.25 30.1166 51.6667 31.0499 51.6667 32.0833Z" fill="#55B39E"/>
    <path d="M56.3833 33.3833C56 33.0666 55.5667 32.8166 55.1 32.6333C54.6167 32.4499 54.1333 32.8333 54.0333 33.3333C53.4667 36.1833 50.95 38.3333 47.9167 38.3333H42.0833C40.4167 38.3333 38.85 37.6833 37.6667 36.4999C36.8 35.6333 36.2 34.5333 35.9667 33.3499C35.8667 32.8499 35.3667 32.4499 34.8833 32.6499C32.95 33.4333 31.6667 35.1999 31.6667 38.7499V54.9999C31.6667 59.9999 34.65 61.6666 38.3333 61.6666H51.6667C55.35 61.6666 58.3333 59.9999 58.3333 54.9999V38.7499C58.3333 36.0333 57.5833 34.3666 56.3833 33.3833ZM38.3333 45.4166H45C45.6833 45.4166 46.25 45.9833 46.25 46.6666C46.25 47.3499 45.6833 47.9166 45 47.9166H38.3333C37.65 47.9166 37.0833 47.3499 37.0833 46.6666C37.0833 45.9833 37.65 45.4166 38.3333 45.4166ZM51.6667 54.5833H38.3333C37.65 54.5833 37.0833 54.0166 37.0833 53.3333C37.0833 52.6499 37.65 52.0833 38.3333 52.0833H51.6667C52.35 52.0833 52.9167 52.6499 52.9167 53.3333C52.9167 54.0166 52.35 54.5833 51.6667 54.5833Z" fill="#55B39E"/>
</svg>
