<svg width="90" height="90" viewBox="0 0 90 90" fill="none"
    xmlns="http://www.w3.org/2000/svg">
    <circle cx="45" cy="45" r="45" fill="#FEF8EA"/>
    <path d="M33.2812 65H56.7188C58.6573 65 60.2344 63.423 60.2344 61.4844V36.7188H52.0312C50.0927 36.7188 48.5156 35.1417 48.5156 33.2031V25H33.2812C31.3427 25 29.7656 26.577 29.7656 28.5156V61.4844C29.7656 63.423 31.3427 65 33.2812 65ZM37.9688 41.4844H52.0312C52.679 41.4844 53.2031 42.0085 53.2031 42.6562C53.2031 43.304 52.679 43.8281 52.0312 43.8281H37.9688C37.321 43.8281 36.7969 43.304 36.7969 42.6562C36.7969 42.0085 37.321 41.4844 37.9688 41.4844ZM37.9688 46.1719H52.0312C52.679 46.1719 53.2031 46.696 53.2031 47.3438C53.2031 47.9915 52.679 48.5156 52.0312 48.5156H37.9688C37.321 48.5156 36.7969 47.9915 36.7969 47.3438C36.7969 46.696 37.321 46.1719 37.9688 46.1719ZM37.9688 50.8594H52.0312C52.679 50.8594 53.2031 51.3835 53.2031 52.0312C53.2031 52.679 52.679 53.2031 52.0312 53.2031H37.9688C37.321 53.2031 36.7969 52.679 36.7969 52.0312C36.7969 51.3835 37.321 50.8594 37.9688 50.8594ZM37.9688 55.5469H47.3438C47.9915 55.5469 48.5156 56.071 48.5156 56.7188C48.5156 57.3665 47.9915 57.8906 47.3438 57.8906H37.9688C37.321 57.8906 36.7969 57.3665 36.7969 56.7188C36.7969 56.071 37.321 55.5469 37.9688 55.5469Z" fill="#FEB300"/>
    <path d="M52.0312 34.3749H59.5477L50.8594 25.6865V33.203C50.8594 33.8496 51.3847 34.3749 52.0312 34.3749Z" fill="#FEB300"/>
</svg>
