<svg width="115" height="115" viewBox="0 0 115 115" fill="none" xmlns="http://www.w3.org/2000/svg">
<circle cx="1.85484" cy="1.85484" r="1.85484" fill="#0090A6"/>
<circle cx="1.85484" cy="24.1127" r="1.85484" fill="#0090A6"/>
<circle cx="1.85484" cy="46.3705" r="1.85484" fill="#0090A6"/>
<circle cx="1.85484" cy="68.6283" r="1.85484" fill="#0090A6"/>
<circle cx="1.85484" cy="90.8861" r="1.85484" fill="#0090A6"/>
<circle cx="1.85484" cy="113.144" r="1.85484" fill="#0090A6"/>
<circle cx="24.1127" cy="1.85484" r="1.85484" fill="#0090A6"/>
<circle cx="24.1127" cy="24.1127" r="1.85484" fill="#0090A6"/>
<circle cx="24.1127" cy="46.3705" r="1.85484" fill="#0090A6"/>
<circle cx="24.1127" cy="68.6283" r="1.85484" fill="#0090A6"/>
<circle cx="24.1127" cy="90.8861" r="1.85484" fill="#0090A6"/>
<circle cx="24.1127" cy="113.144" r="1.85484" fill="#0090A6"/>
<circle cx="46.3705" cy="1.85484" r="1.85484" fill="#0090A6"/>
<circle cx="46.3705" cy="24.1127" r="1.85484" fill="#0090A6"/>
<circle cx="46.3705" cy="46.3705" r="1.85484" fill="#0090A6"/>
<circle cx="46.3705" cy="68.6283" r="1.85484" fill="#0090A6"/>
<circle cx="46.3705" cy="90.8861" r="1.85484" fill="#0090A6"/>
<circle cx="46.3705" cy="113.144" r="1.85484" fill="#0090A6"/>
<circle cx="68.6283" cy="1.85484" r="1.85484" fill="#0090A6"/>
<circle cx="68.6283" cy="24.1127" r="1.85484" fill="#0090A6"/>
<circle cx="68.6283" cy="46.3705" r="1.85484" fill="#0090A6"/>
<circle cx="68.6283" cy="68.6283" r="1.85484" fill="#0090A6"/>
<circle cx="68.6283" cy="90.8861" r="1.85484" fill="#0090A6"/>
<circle cx="68.6283" cy="113.144" r="1.85484" fill="#0090A6"/>
<circle cx="90.8861" cy="1.85484" r="1.85484" fill="#0090A6"/>
<circle cx="90.8861" cy="24.1127" r="1.85484" fill="#0090A6"/>
<circle cx="90.8861" cy="46.3705" r="1.85484" fill="#0090A6"/>
<circle cx="90.8861" cy="68.6283" r="1.85484" fill="#0090A6"/>
<circle cx="90.8861" cy="90.8861" r="1.85484" fill="#0090A6"/>
<circle cx="90.8861" cy="113.144" r="1.85484" fill="#0090A6"/>
<circle cx="113.144" cy="1.85484" r="1.85484" fill="#0090A6"/>
<circle cx="113.144" cy="24.1127" r="1.85484" fill="#0090A6"/>
<circle cx="113.144" cy="46.3705" r="1.85484" fill="#0090A6"/>
<circle cx="113.144" cy="68.6283" r="1.85484" fill="#0090A6"/>
<circle cx="113.144" cy="90.8861" r="1.85484" fill="#0090A6"/>
<circle cx="113.144" cy="113.144" r="1.85484" fill="#0090A6"/>
</svg>
