<svg width="90" height="90" viewBox="0 0 90 90" fill="none"
    xmlns="http://www.w3.org/2000/svg">
    <circle cx="45" cy="45" r="45" fill="#FDEDEF"/>
    <g clip-path="url(#clip0_1754_1793)">
        <path d="M62.9999 60.7997V57.7997C62.9999 57.1997 62.5999 56.7997 61.9999 56.7997H60.9999V44.7997H62.9999V40.7997H63.9999C64.9999 40.7997 65.3999 39.5997 64.5999 38.9997L45.5999 25.1997C45.1999 24.9997 44.7999 24.9997 44.3999 25.3997L25.3999 38.9997C24.5999 39.5997 24.9999 40.7997 25.9999 40.7997H26.9999V44.7997H28.9999V56.7997H27.9999C27.3999 56.7997 26.9999 57.1997 26.9999 57.7997V60.7997C25.7999 60.7997 24.9999 61.5997 24.9999 62.7997C24.9999 63.9997 25.7999 64.7997 26.9999 64.7997H62.9999C64.1999 64.7997 64.9999 63.9997 64.9999 62.7997C64.9999 61.5997 64.1999 60.7997 62.9999 60.7997ZM54.9999 40.7997V44.7997H56.9999V56.7997H46.9999V44.7997H48.9999V40.7997H54.9999ZM32.9999 44.7997H34.9999V40.7997H40.9999V44.7997H42.9999V56.7997H32.9999V44.7997Z" fill="#F16E80"/>
    </g>
    <defs>
        <clipPath id="clip0_1754_1793">
            <rect width="40" height="40" fill="white" transform="translate(25 25)"/>
        </clipPath>
    </defs>
</svg>
