<svg width="90" height="90" viewBox="0 0 90 90" fill="none"
    xmlns="http://www.w3.org/2000/svg">
    <circle cx="45" cy="45" r="45" fill="#EDF8FE"/>
    <g clip-path="url(#clip0_1754_1801)">
        <path d="M62.5 33.6625V38.75H27.5V33.6625C27.5129 32.6799 27.9149 31.7425 28.6178 31.056C29.3208 30.3694 30.2674 29.9896 31.25 30H33.75V32.5C33.75 33.4945 34.1451 34.4484 34.8483 35.1516C35.5516 35.8549 36.5054 36.25 37.5 36.25C38.4946 36.25 39.4484 35.8549 40.1517 35.1516C40.8549 34.4484 41.25 33.4945 41.25 32.5V30H48.75V32.5C48.75 33.4945 49.1451 34.4484 49.8483 35.1516C50.5516 35.8549 51.5054 36.25 52.5 36.25C53.4946 36.25 54.4484 35.8549 55.1517 35.1516C55.8549 34.4484 56.25 33.4945 56.25 32.5V30H58.75C59.7326 29.9896 60.6792 30.3694 61.3822 31.056C62.0851 31.7425 62.4871 32.6799 62.5 33.6625ZM27.5 41.25V61.3375C27.5129 62.32 27.9149 63.2574 28.6178 63.944C29.3208 64.6305 30.2674 65.0103 31.25 65H58.75C59.7326 65.0103 60.6792 64.6305 61.3822 63.944C62.0851 63.2574 62.4871 62.32 62.5 61.3375V41.25H27.5ZM38.75 58.75C38.749 59.0812 38.617 59.3985 38.3828 59.6328C38.1486 59.867 37.8312 59.999 37.5 60H35C34.6688 59.999 34.3514 59.867 34.1172 59.6328C33.883 59.3985 33.751 59.0812 33.75 58.75V56.25C33.751 55.9187 33.883 55.6014 34.1172 55.3672C34.3514 55.133 34.6688 55.0009 35 55H37.5C37.8312 55.0009 38.1486 55.133 38.3828 55.3672C38.617 55.6014 38.749 55.9187 38.75 56.25V58.75ZM38.75 50C38.749 50.3312 38.617 50.6485 38.3828 50.8828C38.1486 51.117 37.8312 51.249 37.5 51.25H35C34.6688 51.249 34.3514 51.117 34.1172 50.8828C33.883 50.6485 33.751 50.3312 33.75 50V47.5C33.751 47.1687 33.883 46.8514 34.1172 46.6172C34.3514 46.383 34.6688 46.251 35 46.25H37.5C37.8312 46.251 38.1486 46.383 38.3828 46.6172C38.617 46.8514 38.749 47.1687 38.75 47.5V50ZM47.5 58.75C47.499 59.0812 47.367 59.3985 47.1328 59.6328C46.8986 59.867 46.5812 59.999 46.25 60H43.75C43.4188 59.999 43.1014 59.867 42.8672 59.6328C42.633 59.3985 42.501 59.0812 42.5 58.75V56.25C42.501 55.9187 42.633 55.6014 42.8672 55.3672C43.1014 55.133 43.4188 55.0009 43.75 55H46.25C46.5812 55.0009 46.8986 55.133 47.1328 55.3672C47.367 55.6014 47.499 55.9187 47.5 56.25V58.75ZM47.5 50C47.499 50.3312 47.367 50.6485 47.1328 50.8828C46.8986 51.117 46.5812 51.249 46.25 51.25H43.75C43.4188 51.249 43.1014 51.117 42.8672 50.8828C42.633 50.6485 42.501 50.3312 42.5 50V47.5C42.501 47.1687 42.633 46.8514 42.8672 46.6172C43.1014 46.383 43.4188 46.251 43.75 46.25H46.25C46.5812 46.251 46.8986 46.383 47.1328 46.6172C47.367 46.8514 47.499 47.1687 47.5 47.5V50ZM56.25 50C56.249 50.3312 56.117 50.6485 55.8828 50.8828C55.6486 51.117 55.3312 51.249 55 51.25H52.5C52.1688 51.249 51.8514 51.117 51.6172 50.8828C51.383 50.6485 51.251 50.3312 51.25 50V47.5C51.251 47.1687 51.383 46.8514 51.6172 46.6172C51.8514 46.383 52.1688 46.251 52.5 46.25H55C55.3312 46.251 55.6486 46.383 55.8828 46.6172C56.117 46.8514 56.249 47.1687 56.25 47.5V50Z" fill="#00B3FF"/>
        <path d="M38.75 30V32.5C38.75 32.8315 38.6183 33.1495 38.3839 33.3839C38.1495 33.6183 37.8315 33.75 37.5 33.75C37.1685 33.75 36.8505 33.6183 36.6161 33.3839C36.3817 33.1495 36.25 32.8315 36.25 32.5V30C36.25 29.6685 36.3817 29.3505 36.6161 29.1161C36.8505 28.8817 37.1685 28.75 37.5 28.75C37.8315 28.75 38.1495 28.8817 38.3839 29.1161C38.6183 29.3505 38.75 29.6685 38.75 30ZM53.75 30V32.5C53.75 32.8315 53.6183 33.1495 53.3839 33.3839C53.1495 33.6183 52.8315 33.75 52.5 33.75C52.1685 33.75 51.8505 33.6183 51.6161 33.3839C51.3817 33.1495 51.25 32.8315 51.25 32.5V30C51.25 29.6685 51.3817 29.3505 51.6161 29.1161C51.8505 28.8817 52.1685 28.75 52.5 28.75C52.8315 28.75 53.1495 28.8817 53.3839 29.1161C53.6183 29.3505 53.75 29.6685 53.75 30Z" fill="#00B3FF"/>
    </g>
    <defs>
        <clipPath id="clip0_1754_1801">
            <rect width="40" height="40" fill="white" transform="translate(25 25)"/>
        </clipPath>
    </defs>
</svg>
