<svg width="90" height="90" viewBox="0 0 90 90" fill="none"
    xmlns="http://www.w3.org/2000/svg">
    <circle cx="45" cy="45" r="45" fill="#FFEAF4"/>
    <path d="M55 34.375C55 33.175 54.8 32.025 54.425 30.95C56.9875 32.3125 58.75 35.025 58.75 38.125C58.75 42.6 55.1 46.25 50.625 46.25C48.95 46.25 47.375 45.7375 46.0875 44.8625C47.325 44.6625 48.5 44.25 49.55 43.65C51.1671 42.7459 52.5204 41.4355 53.4762 39.8484C54.432 38.2612 54.9572 36.4522 55 34.6V34.375ZM43.775 42.475C43.975 42.4875 44.175 42.5 44.375 42.5C45.1875 42.5 45.975 42.375 46.7125 42.1625C50.05 41.15 52.5 38.0375 52.5 34.375C52.5 33.825 52.45 33.3 52.3375 32.775C52.1375 31.775 51.7625 30.85 51.225 30.025C50.4933 28.87 49.4818 27.9185 48.2844 27.2586C47.0869 26.5987 45.7422 26.2517 44.375 26.25C39.9 26.25 36.25 29.9 36.25 34.375C36.25 38.65 39.575 42.1625 43.775 42.475ZM33.5625 46.4125C33.225 46.3 32.8625 46.25 32.5 46.25H30C27.9375 46.25 26.25 47.9375 26.25 50V59.975C26.25 62.0375 27.9375 63.725 30 63.725H32.5C32.85 63.725 33.2 63.675 33.525 63.575C32.8137 62.988 32.241 62.2511 31.8477 61.417C31.4544 60.5829 31.2503 59.6722 31.25 58.75V51.25C31.25 49.3 32.15 47.55 33.5625 46.4125ZM62.73 48.9587C62.5775 48.742 62.4 48.544 62.2012 48.3687C61.9445 48.145 61.658 47.9578 61.35 47.8125C60.8 47.5625 60.2 47.475 59.6075 47.5312C59.4 47.5513 59.1987 47.61 58.9963 47.6637C58.6188 47.7638 58.25 47.9012 57.9125 48.1125L53.0475 51.3162L51.25 52.5L48.76 54.16C47.9386 54.7077 46.9735 55 45.9862 55H42.5C41.8125 55 41.25 54.4375 41.25 53.75C41.25 53.0625 41.8125 52.5 42.5 52.5H46.25C47.625 52.5 48.75 51.375 48.75 50C48.7473 49.3489 48.4912 48.7244 48.036 48.2589C47.5807 47.7934 46.9621 47.5235 46.3112 47.5062C46.29 47.5062 46.2712 47.5 46.25 47.5H37.5C37.47 47.5 37.4425 47.51 37.4125 47.5113C37.1527 47.5178 36.8943 47.5509 36.6412 47.61C36.5275 47.6362 36.4213 47.6763 36.3125 47.7125C36.1572 47.7633 36.0056 47.8247 35.8588 47.8962C35.7963 47.9262 35.7238 47.9412 35.6637 47.975C35.5837 48.0212 35.5087 48.0763 35.4325 48.1275L35.385 48.1588C35.1975 48.2887 35.02 48.4313 34.86 48.5925L34.8212 48.6362C34.6469 48.8167 34.4907 49.0139 34.355 49.225C34.2392 49.4013 34.1385 49.5869 34.0538 49.78L34.03 49.845C33.9569 50.028 33.8984 50.2165 33.855 50.4087C33.8425 50.465 33.83 50.5212 33.82 50.5775C33.7772 50.7987 33.7546 51.0234 33.7525 51.2488V58.7562C33.7543 59.0371 33.7882 59.3169 33.8538 59.59C33.9013 59.8 33.9613 60.005 34.0438 60.2L34.0475 60.2125C34.1526 60.4557 34.2833 60.687 34.4375 60.9025C34.5588 61.075 34.69 61.2375 34.8375 61.3862L34.855 61.405C35.0062 61.555 35.1725 61.6887 35.3475 61.8112C35.3975 61.8462 35.4487 61.8775 35.5 61.91C35.5512 61.9425 35.6 61.98 35.6525 62.01C35.6925 62.0325 35.74 62.0412 35.7812 62.0625C35.97 62.1613 36.1675 62.2412 36.3737 62.3075C36.455 62.3325 36.5312 62.3625 36.6138 62.3825C36.9 62.4525 37.195 62.5 37.5037 62.5H50.3312C50.72 62.5 51.0987 62.4287 51.4637 62.3138C51.9405 62.1629 52.3836 61.9214 52.7687 61.6025L59.6763 55.7013L62.505 53.2862L62.6925 53.0863C63.105 52.5362 63.3925 51.6737 63.3925 50.9862C63.3925 50.2325 63.1525 49.5363 62.735 48.9575L62.73 48.9587Z" fill="#FA2596"/>
</svg>
