<svg width="90" height="90" viewBox="0 0 90 90" fill="none" xmlns="http://www.w3.org/2000/svg">
<circle cx="45" cy="45" r="45" fill="#FDEDEF"/>
<g clip-path="url(#clip0_1754_1741)">
<path d="M48.75 25H29.5833C27.05 25 25 27.05 25 29.5833V55.4167C25 57.95 27.05 60 29.5833 60H37.75C37.9167 59.3333 38.2167 58.7 38.6 58.1167L47.3 43.9833C48.4167 42.0667 50.5833 40.8333 52.9167 40.8333C53.05 40.8333 53.2 40.8333 53.3333 40.85V29.5833C53.3333 27.05 51.2833 25 48.75 25ZM31.6667 31.6667H38.3333C39.25 31.6667 40 32.4167 40 33.3333C40 34.25 39.25 35 38.3333 35H31.6667C30.75 35 30 34.25 30 33.3333C30 32.4167 30.75 31.6667 31.6667 31.6667ZM40 48.3333H31.6667C30.75 48.3333 30 47.5833 30 46.6667C30 45.75 30.75 45 31.6667 45H40C40.9167 45 41.6667 45.75 41.6667 46.6667C41.6667 47.5833 40.9167 48.3333 40 48.3333ZM46.6667 41.6667H31.6667C30.75 41.6667 30 40.9167 30 40C30 39.0833 30.75 38.3333 31.6667 38.3333H46.6667C47.5833 38.3333 48.3333 39.0833 48.3333 40C48.3333 40.9167 47.5833 41.6667 46.6667 41.6667ZM64.5117 60.04L55.715 45.75C55.14 44.7733 54.0667 44.1667 52.9167 44.1667C51.7667 44.1667 50.6933 44.7733 50.135 45.7233L41.3583 59.9833C41.0118 60.5039 40.8289 61.1163 40.8333 61.7417C40.8355 62.6072 41.1811 63.4364 41.7942 64.0473C42.4073 64.6583 43.2378 65.0009 44.1033 65H61.73C62.5955 65.0009 63.426 64.6583 64.0391 64.0473C64.6522 63.4364 64.9978 62.6072 65 61.7417C65 61.1017 64.8183 60.4933 64.5117 60.04ZM52.9167 61.6667C52.4746 61.6667 52.0507 61.4911 51.7382 61.1785C51.4256 60.866 51.25 60.442 51.25 60C51.25 59.558 51.4256 59.134 51.7382 58.8215C52.0507 58.5089 52.4746 58.3333 52.9167 58.3333C53.3587 58.3333 53.7826 58.5089 54.0952 58.8215C54.4077 59.134 54.5833 59.558 54.5833 60C54.5833 60.442 54.4077 60.866 54.0952 61.1785C53.7826 61.4911 53.3587 61.6667 52.9167 61.6667ZM54.5833 55.8333C54.5833 56.2754 54.4077 56.6993 54.0952 57.0118C53.7826 57.3244 53.3587 57.5 52.9167 57.5C52.4746 57.5 52.0507 57.3244 51.7382 57.0118C51.4256 56.6993 51.25 56.2754 51.25 55.8333V52.5C51.25 52.058 51.4256 51.6341 51.7382 51.3215C52.0507 51.0089 52.4746 50.8333 52.9167 50.8333C53.3587 50.8333 53.7826 51.0089 54.0952 51.3215C54.4077 51.6341 54.5833 52.058 54.5833 52.5V55.8333Z" fill="#F16E80"/>
</g>
<defs>
<clipPath id="clip0_1754_1741">
<rect width="40" height="40" fill="white" transform="translate(25 25)"/>
</clipPath>
</defs>
</svg>
