<svg width="90" height="90" viewBox="0 0 90 90" fill="none"
    xmlns="http://www.w3.org/2000/svg">
    <circle cx="45" cy="45" r="45" fill="#FFEAF4"/>
    <path d="M58.0483 39.4994L50.4987 31.9497C48.9155 30.3665 46.7322 29.5165 44.499 29.6332L36.1661 30.0332C32.8329 30.1831 30.183 32.833 30.0164 36.1495L29.6164 44.4824C29.5164 46.7157 30.3497 48.8989 31.933 50.4822L39.4826 58.0318C42.5824 61.1316 47.6155 61.1316 50.732 58.0318L58.0483 50.7155C61.1649 47.6323 61.1649 42.5992 58.0483 39.4994ZM40.8325 45.6324C38.1826 45.6324 36.0328 43.4825 36.0328 40.8326C36.0328 38.1828 38.1826 36.0329 40.8325 36.0329C43.4824 36.0329 45.6323 38.1828 45.6323 40.8326C45.6323 43.4825 43.4824 45.6324 40.8325 45.6324Z" fill="#FA2596"/>
</svg>
