<svg width="90" height="90" viewBox="0 0 90 90" fill="none"
    xmlns="http://www.w3.org/2000/svg">
    <circle cx="45" cy="45" r="45" fill="#EEEFFD"/>
    <path d="M56.25 35H61.7625L55 28.2375V33.75C55 34.0816 55.1317 34.3995 55.3661 34.6339C55.6005 34.8684 55.9185 35 56.25 35Z" fill="#9561FF"/>
    <path d="M56.25 37.5C55.2554 37.5 54.3016 37.1049 53.5983 36.4017C52.8951 35.6984 52.5 34.7446 52.5 33.75V27.5H38.75C37.7554 27.5 36.8016 27.8951 36.0983 28.5983C35.3951 29.3016 35 30.2554 35 31.25V40.25C37.7822 39.681 40.6753 40.0763 43.2029 41.3708C45.7305 42.6654 47.7419 44.782 48.9061 47.3723C50.0702 49.9625 50.3177 52.8719 49.6077 55.6216C48.8977 58.3712 47.2727 60.7972 45 62.5H58.75C59.7446 62.5 60.6984 62.1049 61.4017 61.4016C62.1049 60.6984 62.5 59.7446 62.5 58.75V37.5H56.25ZM48.75 37.5H41.25C40.9185 37.5 40.6005 37.3683 40.3661 37.1339C40.1317 36.8995 40 36.5815 40 36.25C40 35.9185 40.1317 35.6005 40.3661 35.3661C40.6005 35.1317 40.9185 35 41.25 35H48.75C49.0815 35 49.3995 35.1317 49.6339 35.3661C49.8683 35.6005 50 35.9185 50 36.25C50 36.5815 49.8683 36.8995 49.6339 37.1339C49.3995 37.3683 49.0815 37.5 48.75 37.5ZM56.25 56.25H53.75C53.4185 56.25 53.1005 56.1183 52.8661 55.8839C52.6317 55.6495 52.5 55.3315 52.5 55C52.5 54.6685 52.6317 54.3505 52.8661 54.1161C53.1005 53.8817 53.4185 53.75 53.75 53.75H56.25C56.5815 53.75 56.8995 53.8817 57.1339 54.1161C57.3683 54.3505 57.5 54.6685 57.5 55C57.5 55.3315 57.3683 55.6495 57.1339 55.8839C56.8995 56.1183 56.5815 56.25 56.25 56.25ZM56.25 50H53.75C53.4185 50 53.1005 49.8683 52.8661 49.6339C52.6317 49.3995 52.5 49.0815 52.5 48.75C52.5 48.4185 52.6317 48.1005 52.8661 47.8661C53.1005 47.6317 53.4185 47.5 53.75 47.5H56.25C56.5815 47.5 56.8995 47.6317 57.1339 47.8661C57.3683 48.1005 57.5 48.4185 57.5 48.75C57.5 49.0815 57.3683 49.3995 57.1339 49.6339C56.8995 49.8683 56.5815 50 56.25 50ZM56.25 43.75H51.25C50.9185 43.75 50.6005 43.6183 50.3661 43.3839C50.1317 43.1495 50 42.8315 50 42.5C50 42.1685 50.1317 41.8505 50.3661 41.6161C50.6005 41.3817 50.9185 41.25 51.25 41.25H56.25C56.5815 41.25 56.8995 41.3817 57.1339 41.6161C57.3683 41.8505 57.5 42.1685 57.5 42.5C57.5 42.8315 57.3683 43.1495 57.1339 43.3839C56.8995 43.6183 56.5815 43.75 56.25 43.75Z" fill="#9561FF"/>
    <path d="M37.5 42.5C35.5222 42.5 33.5888 43.0865 31.9443 44.1853C30.2998 45.2841 29.0181 46.8459 28.2612 48.6732C27.5043 50.5004 27.3063 52.5111 27.6922 54.4509C28.078 56.3907 29.0304 58.1725 30.4289 59.5711C31.8275 60.9696 33.6093 61.922 35.5491 62.3079C37.4889 62.6937 39.4996 62.4957 41.3268 61.7388C43.1541 60.9819 44.7159 59.7002 45.8147 58.0557C46.9135 56.4112 47.5 54.4778 47.5 52.5C47.5 49.8478 46.4464 47.3043 44.5711 45.4289C42.6957 43.5536 40.1522 42.5 37.5 42.5ZM35 48.75C35.2472 48.75 35.4889 48.8233 35.6945 48.9607C35.9 49.098 36.0602 49.2932 36.1549 49.5216C36.2495 49.7501 36.2742 50.0014 36.226 50.2439C36.1778 50.4863 36.0587 50.7091 35.8839 50.8839C35.7091 51.0587 35.4863 51.1778 35.2439 51.226C35.0014 51.2742 34.7501 51.2495 34.5217 51.1549C34.2932 51.0602 34.098 50.9 33.9607 50.6945C33.8233 50.4889 33.75 50.2472 33.75 50C33.75 49.6685 33.8817 49.3505 34.1161 49.1161C34.3505 48.8817 34.6685 48.75 35 48.75ZM40 56.25C39.7528 56.25 39.5111 56.1767 39.3055 56.0393C39.1 55.902 38.9398 55.7068 38.8452 55.4784C38.7505 55.2499 38.7258 54.9986 38.774 54.7561C38.8223 54.5137 38.9413 54.2909 39.1161 54.1161C39.2909 53.9413 39.5137 53.8222 39.7561 53.774C39.9986 53.7258 40.25 53.7505 40.4784 53.8451C40.7068 53.9398 40.902 54.1 41.0393 54.3055C41.1767 54.5111 41.25 54.7528 41.25 55C41.25 55.3315 41.1183 55.6495 40.8839 55.8839C40.6495 56.1183 40.3315 56.25 40 56.25ZM40.8875 50.8875L35.8875 55.8875C35.7713 56.0047 35.633 56.0977 35.4807 56.1611C35.3284 56.2246 35.165 56.2572 35 56.2572C34.835 56.2572 34.6716 56.2246 34.5193 56.1611C34.367 56.0977 34.2287 56.0047 34.1125 55.8875C33.9953 55.7713 33.9024 55.633 33.8389 55.4807C33.7754 55.3284 33.7428 55.165 33.7428 55C33.7428 54.835 33.7754 54.6716 33.8389 54.5193C33.9024 54.367 33.9953 54.2287 34.1125 54.1125L39.1125 49.1125C39.3479 48.8771 39.6671 48.7449 40 48.7449C40.3329 48.7449 40.6521 48.8771 40.8875 49.1125C41.1229 49.3479 41.2551 49.6671 41.2551 50C41.2551 50.3329 41.1229 50.6521 40.8875 50.8875Z" fill="#9561FF"/>
</svg>
